<svg xmlns="http://www.w3.org/2000/svg" class="railroad-diagram" width="897" height="188" viewBox="0 0 897 188">
<style>.railroad-diagram { background: transparent; }
.railroad-diagram path { stroke-width: 2; stroke: #374151; fill: none; }
.railroad-diagram text { font: bold 13px monospace; text-anchor: middle; fill: #111827; }
.railroad-diagram text.comment { font: italic 12px monospace; fill: #6b7280; }
.railroad-diagram rect { stroke-width: 2; stroke: #374151; fill: #f3f4f6; }</style>
<g transform="translate(0,0)"><g transform="translate(.5 .5)">
<path d="M 20 31 v 20 m 0 -10 h 20.5"></path>
<path d="M40 41h10"></path>
<g>
<path d="M50 41h0"></path>
<path d="M126 41h0"></path>
<rect x="50" y="30" width="76" height="22" rx="10" ry="10"></rect>
<text x="88" y="45">RECOVER</text>
</g>
<path d="M126 41h10"></path>
<path d="M136 41h10"></path>
<g>
<path d="M146 41h0"></path>
<path d="M230 41h0"></path>
<rect x="146" y="30" width="84" height="22" rx="10" ry="10"></rect>
<text x="188" y="45">DATABASE</text>
</g>
<path d="M230 41h10"></path>
<path d="M240 41h10"></path>
<g>
<path d="M250 41h0"></path>
<path d="M334 41h0"></path>
<rect x="250" y="30" width="84" height="22"></rect>
<text x="292" y="45">ini&#95;path</text>
</g>
<path d="M334 41h10"></path>
<g>
<path d="M344 41h0"></path>
<path d="M544 41h0"></path>
<path d="M344 41a10 10 0 0 0 10 -10v0a10 10 0 0 1 10 -10"></path>
<g>
<path d="M364 21h160"></path>
</g>
<path d="M524 21a10 10 0 0 1 10 10v0a10 10 0 0 0 10 10"></path>
<path d="M344 41h20"></path>
<g>
<path d="M364 41h0"></path>
<path d="M524 41h0"></path>
<path d="M364 41h10"></path>
<g>
<path d="M374 41h0"></path>
<path d="M418 41h0"></path>
<rect x="374" y="30" width="44" height="22" rx="10" ry="10"></rect>
<text x="396" y="45">FOR</text>
</g>
<path d="M418 41h10"></path>
<path d="M428 41h10"></path>
<g>
<path d="M438 41h0"></path>
<path d="M514 41h0"></path>
<rect x="438" y="30" width="76" height="22" rx="10" ry="10"></rect>
<text x="476" y="45">STANDBY</text>
</g>
<path d="M514 41h10"></path>
</g>
<path d="M524 41h20"></path>
</g>
<path d="M544 41h10"></path>
<g>
<path d="M554 41h0"></path>
<path d="M606 41h0"></path>
<rect x="554" y="30" width="52" height="22" rx="10" ry="10"></rect>
<text x="580" y="45">WITH</text>
</g>
<path d="M606 41h10"></path>
<path d="M616 41h10"></path>
<g>
<path d="M626 41h0"></path>
<path d="M726 41h0"></path>
<rect x="626" y="30" width="100" height="22" rx="10" ry="10"></rect>
<text x="676" y="45">ARCHIVEDIR</text>
</g>
<path d="M726 41h10"></path>
<path d="M736 41h10"></path>
<g>
<path d="M746 41h0"></path>
<path d="M834 41h0"></path>
<path d="M746 41h10"></path>
<g>
<path d="M756 41h0"></path>
<path d="M824 41h0"></path>
<rect x="756" y="30" width="68" height="22"></rect>
<text x="790" y="45">归档日志目录</text>
</g>
<path d="M824 41h10"></path>
<path d="M756 41a10 10 0 0 0 -10 10v10a10 10 0 0 0 10 10"></path>
<g>
<path d="M756 71h20"></path>
<path d="M804 71h20"></path>
<rect x="776" y="60" width="28" height="22" rx="10" ry="10"></rect>
<text x="790" y="75">,</text>
</g>
<path d="M824 71a10 10 0 0 0 10 -10v-10a10 10 0 0 0 -10 -10"></path>
</g>
<path d="M834 41h10"></path>
<path d="M 844 41 h 20 m 0 -10 v 20"></path>
</g>
</g>
<g transform="translate(0,116)"><g transform="translate(.5 .5)">
<path d="M 20 31 v 20 m 0 -10 h 20.5"></path>
<g>
<path d="M40 41h0"></path>
<path d="M352 41h0"></path>
<path d="M40 41a10 10 0 0 0 10 -10v0a10 10 0 0 1 10 -10"></path>
<g>
<path d="M60 21h272"></path>
</g>
<path d="M332 21a10 10 0 0 1 10 10v0a10 10 0 0 0 10 10"></path>
<path d="M40 41h20"></path>
<g>
<path d="M60 41h0"></path>
<path d="M332 41h0"></path>
<path d="M60 41h10"></path>
<g>
<path d="M70 41h0"></path>
<path d="M114 41h0"></path>
<rect x="70" y="30" width="44" height="22" rx="10" ry="10"></rect>
<text x="92" y="45">USE</text>
</g>
<path d="M114 41h10"></path>
<path d="M124 41h10"></path>
<g>
<path d="M134 41h0"></path>
<path d="M218 41h0"></path>
<rect x="134" y="30" width="84" height="22" rx="10" ry="10"></rect>
<text x="176" y="45">DB&#95;MAGIC</text>
</g>
<path d="M218 41h10"></path>
<path d="M228 41h10"></path>
<g>
<path d="M238 41h0"></path>
<path d="M322 41h0"></path>
<rect x="238" y="30" width="84" height="22"></rect>
<text x="280" y="45">db&#95;magic</text>
</g>
<path d="M322 41h10"></path>
</g>
<path d="M332 41h20"></path>
</g>
<g>
<path d="M352 41h0"></path>
<path d="M608 41h0"></path>
<path d="M352 41a10 10 0 0 0 10 -10v0a10 10 0 0 1 10 -10"></path>
<g>
<path d="M372 21h216"></path>
</g>
<path d="M588 21a10 10 0 0 1 10 10v0a10 10 0 0 0 10 10"></path>
<path d="M352 41h20"></path>
<g>
<path d="M372 41h0"></path>
<path d="M588 41h0"></path>
<path d="M372 41h10"></path>
<g>
<path d="M382 41h0"></path>
<path d="M442 41h0"></path>
<rect x="382" y="30" width="60" height="22" rx="10" ry="10"></rect>
<text x="412" y="45">UNTIL</text>
</g>
<path d="M442 41h10"></path>
<path d="M452 41h10"></path>
<g>
<path d="M462 41h0"></path>
<path d="M514 41h0"></path>
<rect x="462" y="30" width="52" height="22" rx="10" ry="10"></rect>
<text x="488" y="45">TIME</text>
</g>
<path d="M514 41h10"></path>
<path d="M524 41h10"></path>
<g>
<path d="M534 41h0"></path>
<path d="M578 41h0"></path>
<rect x="534" y="30" width="44" height="22"></rect>
<text x="556" y="45">时间串</text>
</g>
<path d="M578 41h10"></path>
</g>
<path d="M588 41h20"></path>
</g>
<g>
<path d="M608 41h0"></path>
<path d="M856 41h0"></path>
<path d="M608 41a10 10 0 0 0 10 -10v0a10 10 0 0 1 10 -10"></path>
<g>
<path d="M628 21h208"></path>
</g>
<path d="M836 21a10 10 0 0 1 10 10v0a10 10 0 0 0 10 10"></path>
<path d="M608 41h20"></path>
<g>
<path d="M628 41h0"></path>
<path d="M836 41h0"></path>
<path d="M628 41h10"></path>
<g>
<path d="M638 41h0"></path>
<path d="M698 41h0"></path>
<rect x="638" y="30" width="60" height="22" rx="10" ry="10"></rect>
<text x="668" y="45">UNTIL</text>
</g>
<path d="M698 41h10"></path>
<path d="M708 41h10"></path>
<g>
<path d="M718 41h0"></path>
<path d="M762 41h0"></path>
<rect x="718" y="30" width="44" height="22" rx="10" ry="10"></rect>
<text x="740" y="45">LSN</text>
</g>
<path d="M762 41h10"></path>
<path d="M772 41h10"></path>
<g>
<path d="M782 41h0"></path>
<path d="M826 41h0"></path>
<rect x="782" y="30" width="44" height="22"></rect>
<text x="804" y="45">LSN</text>
</g>
<path d="M826 41h10"></path>
</g>
<path d="M836 41h20"></path>
</g>
<path d="M 856 41 h 20 m 0 -10 v 20"></path>
</g>
</g>
</svg>
