<svg xmlns="http://www.w3.org/2000/svg" class="railroad-diagram" width="473" height="122" viewBox="0 0 473 122">
<style>.railroad-diagram { background: transparent; }
.railroad-diagram path { stroke-width: 2; stroke: #374151; fill: none; }
.railroad-diagram text { font: bold 13px monospace; text-anchor: middle; fill: #111827; }
.railroad-diagram text.comment { font: italic 12px monospace; fill: #6b7280; }
.railroad-diagram rect { stroke-width: 2; stroke: #374151; fill: #f3f4f6; }</style>
<g transform="translate(.5 .5)">
<path d="M 20 21 v 20 m 10 -20 v 20 m -10 -10 h 20.5"></path>
<g>
<path d="M40 31h0"></path>
<path d="M432 31h0"></path>
<path d="M40 31h20"></path>
<g>
<path d="M60 31h130"></path>
<path d="M282 31h130"></path>
<rect x="190" y="20" width="92" height="22" rx="10" ry="10"></rect>
<text x="236" y="35">CONFIGURE</text>
</g>
<path d="M412 31h20"></path>
<path d="M40 31a10 10 0 0 1 10 10v10a10 10 0 0 0 10 10"></path>
<g>
<path d="M60 61h80"></path>
<path d="M332 61h80"></path>
<path d="M140 61h10"></path>
<g>
<path d="M150 61h0"></path>
<path d="M242 61h0"></path>
<rect x="150" y="50" width="92" height="22" rx="10" ry="10"></rect>
<text x="196" y="65">CONFIGURE</text>
</g>
<path d="M242 61h10"></path>
<path d="M252 61h10"></path>
<g>
<path d="M262 61h0"></path>
<path d="M322 61h0"></path>
<rect x="262" y="50" width="60" height="22" rx="10" ry="10"></rect>
<text x="292" y="65">CLEAR</text>
</g>
<path d="M322 61h10"></path>
</g>
<path d="M412 61a10 10 0 0 0 10 -10v-10a10 10 0 0 1 10 -10"></path>
<path d="M40 31a10 10 0 0 1 10 10v40a10 10 0 0 0 10 10"></path>
<g>
<path d="M60 91h0"></path>
<path d="M412 91h0"></path>
<path d="M60 91h10"></path>
<g>
<path d="M70 91h0"></path>
<path d="M162 91h0"></path>
<rect x="70" y="80" width="92" height="22" rx="10" ry="10"></rect>
<text x="116" y="95">CONFIGURE</text>
</g>
<path d="M162 91h10"></path>
<path d="M172 91h10"></path>
<g>
<path d="M182 91h0"></path>
<path d="M258 91h0"></path>
<rect x="182" y="80" width="76" height="22" rx="10" ry="10"></rect>
<text x="220" y="95">DEFAULT</text>
</g>
<path d="M258 91h10"></path>
<path d="M268 91h10"></path>
<g>
<path d="M278 91h0"></path>
<path d="M402 91h0"></path>
<rect x="278" y="80" width="124" height="22"></rect>
<text x="340" y="95">sub&#95;conf&#95;stmt</text>
</g>
<path d="M402 91h10"></path>
</g>
<path d="M412 91a10 10 0 0 0 10 -10v-40a10 10 0 0 1 10 -10"></path>
</g>
<path d="M 432 31 h 20 m -10 -10 v 20 m 10 -20 v 20"></path>
</g>
</svg>
