<svg xmlns="http://www.w3.org/2000/svg" class="railroad-diagram" width="181" height="92" viewBox="0 0 181 92">
<style>.railroad-diagram { background: transparent; }
.railroad-diagram path { stroke-width: 2; stroke: #374151; fill: none; }
.railroad-diagram text { font: bold 13px monospace; text-anchor: middle; fill: #111827; }
.railroad-diagram text.comment { font: italic 12px monospace; fill: #6b7280; }
.railroad-diagram rect { stroke-width: 2; stroke: #374151; fill: #f3f4f6; }</style>
<g transform="translate(.5 .5)">
<path d="M 20 21 v 20 m 10 -20 v 20 m -10 -10 h 20.5"></path>
<g>
<path d="M40 31h0"></path>
<path d="M140 31h0"></path>
<path d="M40 31h20"></path>
<g>
<path d="M60 31h0"></path>
<path d="M120 31h0"></path>
<rect x="60" y="20" width="60" height="22"></rect>
<text x="90" y="35">type1</text>
</g>
<path d="M120 31h20"></path>
<path d="M40 31a10 10 0 0 1 10 10v10a10 10 0 0 0 10 10"></path>
<g>
<path d="M60 61h0"></path>
<path d="M120 61h0"></path>
<rect x="60" y="50" width="60" height="22"></rect>
<text x="90" y="65">type2</text>
</g>
<path d="M120 61a10 10 0 0 0 10 -10v-10a10 10 0 0 1 10 -10"></path>
</g>
<path d="M 140 31 h 20 m -10 -10 v 20 m 10 -20 v 20"></path>
</g>
</svg>
