<svg xmlns="http://www.w3.org/2000/svg" class="railroad-diagram" width="797" height="158" viewBox="0 0 797 158">
<style>.railroad-diagram { background: transparent; }
.railroad-diagram path { stroke-width: 2; stroke: #374151; fill: none; }
.railroad-diagram text { font: bold 13px monospace; text-anchor: middle; fill: #111827; }
.railroad-diagram text.comment { font: italic 12px monospace; fill: #6b7280; }
.railroad-diagram rect { stroke-width: 2; stroke: #374151; fill: #f3f4f6; }</style>
<g transform="translate(0,0)"><g transform="translate(.5 .5)">
<path d="M 20 31 v 20 m 0 -10 h 20.5"></path>
<path d="M40 41h10"></path>
<g>
<path d="M50 41h0"></path>
<path d="M86 41h0"></path>
<rect x="50" y="30" width="36" height="22" rx="10" ry="10"></rect>
<text x="68" y="45">TO</text>
</g>
<path d="M86 41h10"></path>
<path d="M96 41h10"></path>
<g>
<path d="M106 41h0"></path>
<path d="M238 41h0"></path>
<rect x="106" y="30" width="132" height="22"></rect>
<text x="172" y="45">system&#95;dbf&#95;dir</text>
</g>
<path d="M238 41h10"></path>
<g>
<path d="M248 41h0"></path>
<path d="M432 41h0"></path>
<path d="M248 41a10 10 0 0 0 10 -10v0a10 10 0 0 1 10 -10"></path>
<g>
<path d="M268 21h144"></path>
</g>
<path d="M412 21a10 10 0 0 1 10 10v0a10 10 0 0 0 10 10"></path>
<path d="M248 41h20"></path>
<g>
<path d="M268 41h0"></path>
<path d="M412 41h0"></path>
<path d="M268 41h10"></path>
<g>
<path d="M278 41h0"></path>
<path d="M314 41h0"></path>
<rect x="278" y="30" width="36" height="22" rx="10" ry="10"></rect>
<text x="296" y="45">TO</text>
</g>
<path d="M314 41h10"></path>
<path d="M324 41h10"></path>
<g>
<path d="M334 41h0"></path>
<path d="M402 41h0"></path>
<rect x="334" y="30" width="68" height="22" rx="10" ry="10"></rect>
<text x="368" y="45">SHADOW</text>
</g>
<path d="M402 41h10"></path>
</g>
<path d="M412 41h20"></path>
</g>
<g>
<path d="M432 41h0"></path>
<path d="M624 41h0"></path>
<path d="M432 41a10 10 0 0 0 10 -10v0a10 10 0 0 1 10 -10"></path>
<g>
<path d="M452 21h152"></path>
</g>
<path d="M604 21a10 10 0 0 1 10 10v0a10 10 0 0 0 10 10"></path>
<path d="M432 41h20"></path>
<g>
<path d="M452 41h0"></path>
<path d="M604 41h0"></path>
<path d="M452 41h10"></path>
<g>
<path d="M462 41h0"></path>
<path d="M514 41h0"></path>
<rect x="462" y="30" width="52" height="22" rx="10" ry="10"></rect>
<text x="488" y="45">WITH</text>
</g>
<path d="M514 41h10"></path>
<path d="M524 41h10"></path>
<g>
<path d="M534 41h0"></path>
<path d="M594 41h0"></path>
<rect x="534" y="30" width="60" height="22" rx="10" ry="10"></rect>
<text x="564" y="45">CHECK</text>
</g>
<path d="M594 41h10"></path>
</g>
<path d="M604 41h20"></path>
</g>
<g>
<path d="M624 41h0"></path>
<path d="M756 41h0"></path>
<path d="M624 41a10 10 0 0 0 10 -10v0a10 10 0 0 1 10 -10"></path>
<g>
<path d="M644 21h92"></path>
</g>
<path d="M736 21a10 10 0 0 1 10 10v0a10 10 0 0 0 10 10"></path>
<path d="M624 41h20"></path>
<g>
<path d="M644 41h0"></path>
<path d="M736 41h0"></path>
<rect x="644" y="30" width="92" height="22" rx="10" ry="10"></rect>
<text x="690" y="45">OVERWRITE</text>
</g>
<path d="M736 41h20"></path>
</g>
<path d="M 756 41 h 20 m 0 -10 v 20"></path>
</g>
</g>
<g transform="translate(0,86)"><g transform="translate(.5 .5)">
<path d="M 20 31 v 20 m 0 -10 h 20.5"></path>
<g>
<path d="M40 41h0"></path>
<path d="M264 41h0"></path>
<path d="M40 41a10 10 0 0 0 10 -10v0a10 10 0 0 1 10 -10"></path>
<g>
<path d="M60 21h184"></path>
</g>
<path d="M244 21a10 10 0 0 1 10 10v0a10 10 0 0 0 10 10"></path>
<path d="M40 41h20"></path>
<g>
<path d="M60 41h0"></path>
<path d="M244 41h0"></path>
<path d="M60 41h10"></path>
<g>
<path d="M70 41h0"></path>
<path d="M146 41h0"></path>
<rect x="70" y="30" width="76" height="22" rx="10" ry="10"></rect>
<text x="108" y="45">WITHOUT</text>
</g>
<path d="M146 41h10"></path>
<path d="M156 41h10"></path>
<g>
<path d="M166 41h0"></path>
<path d="M234 41h0"></path>
<rect x="166" y="30" width="68" height="22" rx="10" ry="10"></rect>
<text x="200" y="45">MIRROR</text>
</g>
<path d="M234 41h10"></path>
</g>
<path d="M244 41h20"></path>
</g>
<path d="M 264 41 h 20 m 0 -10 v 20"></path>
</g>
</g>
</svg>
