<svg xmlns="http://www.w3.org/2000/svg" class="railroad-diagram" width="521" height="202" viewBox="0 0 521 202">
<style>.railroad-diagram { background: transparent; }
.railroad-diagram path { stroke-width: 2; stroke: #374151; fill: none; }
.railroad-diagram text { font: bold 13px monospace; text-anchor: middle; fill: #111827; }
.railroad-diagram text.comment { font: italic 12px monospace; fill: #6b7280; }
.railroad-diagram rect { stroke-width: 2; stroke: #374151; fill: #f3f4f6; }</style>
<g transform="translate(.5 .5)">
<path d="M 20 21 v 20 m 10 -20 v 20 m -10 -10 h 20.5"></path>
<g>
<path d="M40 31h0"></path>
<path d="M480 31h0"></path>
<path d="M40 31h20"></path>
<g>
<path d="M60 31h158"></path>
<path d="M302 31h158"></path>
<rect x="218" y="20" width="84" height="22" rx="10" ry="10"></rect>
<text x="260" y="35">DATABASE</text>
</g>
<path d="M460 31h20"></path>
<path d="M40 31a10 10 0 0 1 10 10v20a10 10 0 0 0 10 10"></path>
<g>
<path d="M60 71h82"></path>
<path d="M378 71h82"></path>
<path d="M142 71h10"></path>
<g>
<path d="M152 71h0"></path>
<path d="M252 71h0"></path>
<rect x="152" y="60" width="100" height="22" rx="10" ry="10"></rect>
<text x="202" y="75">TABLESPACE</text>
</g>
<path d="M252 71h10"></path>
<g>
<path d="M262 71h0"></path>
<path d="M378 71h0"></path>
<path d="M262 71a10 10 0 0 0 10 -10v0a10 10 0 0 1 10 -10"></path>
<g>
<path d="M282 51h76"></path>
</g>
<path d="M358 51a10 10 0 0 1 10 10v0a10 10 0 0 0 10 10"></path>
<path d="M262 71h20"></path>
<g>
<path d="M282 71h0"></path>
<path d="M358 71h0"></path>
<rect x="282" y="60" width="76" height="22"></rect>
<text x="320" y="75">ts&#95;name</text>
</g>
<path d="M358 71h20"></path>
</g>
</g>
<path d="M460 71a10 10 0 0 0 10 -10v-20a10 10 0 0 1 10 -10"></path>
<path d="M40 31a10 10 0 0 1 10 10v60a10 10 0 0 0 10 10"></path>
<g>
<path d="M60 111h0"></path>
<path d="M460 111h0"></path>
<path d="M60 111h10"></path>
<g>
<path d="M70 111h0"></path>
<path d="M130 111h0"></path>
<rect x="70" y="100" width="60" height="22" rx="10" ry="10"></rect>
<text x="100" y="115">TABLE</text>
</g>
<path d="M130 111h10"></path>
<g>
<path d="M140 111h0"></path>
<path d="M460 111h0"></path>
<path d="M140 111a10 10 0 0 0 10 -10v0a10 10 0 0 1 10 -10"></path>
<g>
<path d="M160 91h280"></path>
</g>
<path d="M440 91a10 10 0 0 1 10 10v0a10 10 0 0 0 10 10"></path>
<path d="M140 111h20"></path>
<g>
<path d="M160 111h0"></path>
<path d="M440 111h0"></path>
<path d="M160 111h10"></path>
<g>
<path d="M170 111h0"></path>
<path d="M278 111h0"></path>
<rect x="170" y="100" width="108" height="22"></rect>
<text x="224" y="115">schema&#95;name</text>
</g>
<path d="M278 111h10"></path>
<path d="M288 111h10"></path>
<g>
<path d="M298 111h0"></path>
<path d="M326 111h0"></path>
<rect x="298" y="100" width="28" height="22" rx="10" ry="10"></rect>
<text x="312" y="115">.</text>
</g>
<path d="M326 111h10"></path>
<path d="M336 111h10"></path>
<g>
<path d="M346 111h0"></path>
<path d="M430 111h0"></path>
<rect x="346" y="100" width="84" height="22"></rect>
<text x="388" y="115">tab&#95;name</text>
</g>
<path d="M430 111h10"></path>
</g>
<path d="M440 111h20"></path>
</g>
</g>
<path d="M460 111a10 10 0 0 0 10 -10v-60a10 10 0 0 1 10 -10"></path>
<path d="M40 31a10 10 0 0 1 10 10v90a10 10 0 0 0 10 10"></path>
<g>
<path d="M60 141h150"></path>
<path d="M310 141h150"></path>
<rect x="210" y="130" width="100" height="22" rx="10" ry="10"></rect>
<text x="260" y="145">ARCHIVELOG</text>
</g>
<path d="M460 141a10 10 0 0 0 10 -10v-90a10 10 0 0 1 10 -10"></path>
<path d="M40 31a10 10 0 0 1 10 10v120a10 10 0 0 0 10 10"></path>
<g>
<path d="M60 171h120"></path>
<path d="M340 171h120"></path>
<path d="M180 171h10"></path>
<g>
<path d="M190 171h0"></path>
<path d="M266 171h0"></path>
<rect x="190" y="160" width="76" height="22" rx="10" ry="10"></rect>
<text x="228" y="175">ARCHIVE</text>
</g>
<path d="M266 171h10"></path>
<path d="M276 171h10"></path>
<g>
<path d="M286 171h0"></path>
<path d="M330 171h0"></path>
<rect x="286" y="160" width="44" height="22" rx="10" ry="10"></rect>
<text x="308" y="175">LOG</text>
</g>
<path d="M330 171h10"></path>
</g>
<path d="M460 171a10 10 0 0 0 10 -10v-120a10 10 0 0 1 10 -10"></path>
</g>
<path d="M 480 31 h 20 m -10 -10 v 20 m 10 -20 v 20"></path>
</g>
</svg>
