<svg xmlns="http://www.w3.org/2000/svg" class="railroad-diagram" width="917" height="72" viewBox="0 0 917 72">
<style>.railroad-diagram { background: transparent; }
.railroad-diagram path { stroke-width: 2; stroke: #374151; fill: none; }
.railroad-diagram text { font: bold 13px monospace; text-anchor: middle; fill: #111827; }
.railroad-diagram text.comment { font: italic 12px monospace; fill: #6b7280; }
.railroad-diagram rect { stroke-width: 2; stroke: #374151; fill: #f3f4f6; }</style>
<g transform="translate(.5 .5)">
<path d="M 20 31 v 20 m 10 -20 v 20 m -10 -10 h 20.5"></path>
<path d="M40 41h10"></path>
<g>
<path d="M50 41h0"></path>
<path d="M118 41h0"></path>
<rect x="50" y="30" width="68" height="22" rx="10" ry="10"></rect>
<text x="84" y="45">REMOVE</text>
</g>
<path d="M118 41h10"></path>
<path d="M128 41h10"></path>
<g>
<path d="M138 41h0"></path>
<path d="M230 41h0"></path>
<rect x="138" y="30" width="92" height="22" rx="10" ry="10"></rect>
<text x="184" y="45">BACKUPSET</text>
</g>
<path d="M230 41h10"></path>
<path d="M240 41h10"></path>
<g>
<path d="M250 41h0"></path>
<path d="M310 41h0"></path>
<rect x="250" y="30" width="60" height="22"></rect>
<text x="280" y="45">备份集目录</text>
</g>
<path d="M310 41h10"></path>
<g>
<path d="M320 41h0"></path>
<path d="M508 41h0"></path>
<path d="M320 41a10 10 0 0 0 10 -10v0a10 10 0 0 1 10 -10"></path>
<g>
<path d="M340 21h148"></path>
</g>
<path d="M488 21a10 10 0 0 1 10 10v0a10 10 0 0 0 10 10"></path>
<path d="M320 41h20"></path>
<g>
<path d="M340 41h0"></path>
<path d="M488 41h0"></path>
<rect x="340" y="30" width="148" height="22"></rect>
<text x="414" y="45">device&#95;type&#95;stmt</text>
</g>
<path d="M488 41h20"></path>
</g>
<g>
<path d="M508 41h0"></path>
<path d="M760 41h0"></path>
<path d="M508 41a10 10 0 0 0 10 -10v0a10 10 0 0 1 10 -10"></path>
<g>
<path d="M528 21h212"></path>
</g>
<path d="M740 21a10 10 0 0 1 10 10v0a10 10 0 0 0 10 10"></path>
<path d="M508 41h20"></path>
<g>
<path d="M528 41h0"></path>
<path d="M740 41h0"></path>
<rect x="528" y="30" width="212" height="22"></rect>
<text x="634" y="45">database&#95;bakdir&#95;lst&#95;stmt</text>
</g>
<path d="M740 41h20"></path>
</g>
<g>
<path d="M760 41h0"></path>
<path d="M876 41h0"></path>
<path d="M760 41a10 10 0 0 0 10 -10v0a10 10 0 0 1 10 -10"></path>
<g>
<path d="M780 21h76"></path>
</g>
<path d="M856 21a10 10 0 0 1 10 10v0a10 10 0 0 0 10 10"></path>
<path d="M760 41h20"></path>
<g>
<path d="M780 41h0"></path>
<path d="M856 41h0"></path>
<rect x="780" y="30" width="76" height="22" rx="10" ry="10"></rect>
<text x="818" y="45">CASCADE</text>
</g>
<path d="M856 41h20"></path>
</g>
<path d="M 876 41 h 20 m -10 -10 v 20 m 10 -20 v 20"></path>
</g>
</svg>
