<svg xmlns="http://www.w3.org/2000/svg" class="railroad-diagram" width="385" height="92" viewBox="0 0 385 92">
<style>.railroad-diagram { background: transparent; }
.railroad-diagram path { stroke-width: 2; stroke: #374151; fill: none; }
.railroad-diagram text { font: bold 13px monospace; text-anchor: middle; fill: #111827; }
.railroad-diagram text.comment { font: italic 12px monospace; fill: #6b7280; }
.railroad-diagram rect { stroke-width: 2; stroke: #374151; fill: #f3f4f6; }</style>
<g transform="translate(.5 .5)">
<path d="M 20 21 v 20 m 10 -20 v 20 m -10 -10 h 20.5"></path>
<g>
<path d="M40 31h0"></path>
<path d="M344 31h0"></path>
<path d="M40 31h20"></path>
<g>
<path d="M60 31h0"></path>
<path d="M324 31h0"></path>
<path d="M60 31h10"></path>
<g>
<path d="M70 31h0"></path>
<path d="M122 31h0"></path>
<rect x="70" y="20" width="52" height="22" rx="10" ry="10"></rect>
<text x="96" y="35">FROM</text>
</g>
<path d="M122 31h10"></path>
<path d="M132 31h10"></path>
<g>
<path d="M142 31h0"></path>
<path d="M234 31h0"></path>
<rect x="142" y="20" width="92" height="22" rx="10" ry="10"></rect>
<text x="188" y="35">BACKUPSET</text>
</g>
<path d="M234 31h10"></path>
<path d="M244 31h10"></path>
<g>
<path d="M254 31h0"></path>
<path d="M314 31h0"></path>
<rect x="254" y="20" width="60" height="22"></rect>
<text x="284" y="35">备份集路径</text>
</g>
<path d="M314 31h10"></path>
</g>
<path d="M324 31h20"></path>
<path d="M40 31a10 10 0 0 1 10 10v10a10 10 0 0 0 10 10"></path>
<g>
<path d="M60 61h4"></path>
<path d="M320 61h4"></path>
<path d="M64 61h10"></path>
<g>
<path d="M74 61h0"></path>
<path d="M126 61h0"></path>
<rect x="74" y="50" width="52" height="22" rx="10" ry="10"></rect>
<text x="100" y="65">FROM</text>
</g>
<path d="M126 61h10"></path>
<path d="M136 61h10"></path>
<g>
<path d="M146 61h0"></path>
<path d="M246 61h0"></path>
<rect x="146" y="50" width="100" height="22" rx="10" ry="10"></rect>
<text x="196" y="65">BACKUPNAME</text>
</g>
<path d="M246 61h10"></path>
<path d="M256 61h10"></path>
<g>
<path d="M266 61h0"></path>
<path d="M310 61h0"></path>
<rect x="266" y="50" width="44" height="22"></rect>
<text x="288" y="65">备份名</text>
</g>
<path d="M310 61h10"></path>
</g>
<path d="M324 61a10 10 0 0 0 10 -10v-10a10 10 0 0 1 10 -10"></path>
</g>
<path d="M 344 31 h 20 m -10 -10 v 20 m 10 -20 v 20"></path>
</g>
</svg>
