<svg xmlns="http://www.w3.org/2000/svg" class="railroad-diagram" width="329" height="92" viewBox="0 0 329 92">
<style>.railroad-diagram { background: transparent; }
.railroad-diagram path { stroke-width: 2; stroke: #374151; fill: none; }
.railroad-diagram text { font: bold 13px monospace; text-anchor: middle; fill: #111827; }
.railroad-diagram text.comment { font: italic 12px monospace; fill: #6b7280; }
.railroad-diagram rect { stroke-width: 2; stroke: #374151; fill: #f3f4f6; }</style>
<g transform="translate(.5 .5)">
<path d="M 20 21 v 20 m 10 -20 v 20 m -10 -10 h 20.5"></path>
<g>
<path d="M40 31h0"></path>
<path d="M288 31h0"></path>
<path d="M40 31h20"></path>
<g>
<path d="M60 31h0"></path>
<path d="M268 31h0"></path>
<path d="M60 31h10"></path>
<g>
<path d="M70 31h0"></path>
<path d="M170 31h0"></path>
<rect x="70" y="20" width="100" height="22" rx="10" ry="10"></rect>
<text x="120" y="35">ARCHIVEDIR</text>
</g>
<path d="M170 31h10"></path>
<path d="M180 31h10"></path>
<g>
<path d="M190 31h0"></path>
<path d="M258 31h0"></path>
<rect x="190" y="20" width="68" height="22"></rect>
<text x="224" y="35">归档日志目录</text>
</g>
<path d="M258 31h10"></path>
</g>
<path d="M268 31h20"></path>
<path d="M40 31a10 10 0 0 1 10 10v10a10 10 0 0 0 10 10"></path>
<g>
<path d="M60 61h0"></path>
<path d="M268 61h0"></path>
<path d="M60 61h10"></path>
<g>
<path d="M70 61h0"></path>
<path d="M154 61h0"></path>
<rect x="70" y="50" width="84" height="22" rx="10" ry="10"></rect>
<text x="112" y="65">DATABASE</text>
</g>
<path d="M154 61h10"></path>
<path d="M164 61h10"></path>
<g>
<path d="M174 61h0"></path>
<path d="M258 61h0"></path>
<rect x="174" y="50" width="84" height="22"></rect>
<text x="216" y="65">ini&#95;path</text>
</g>
<path d="M258 61h10"></path>
</g>
<path d="M268 61a10 10 0 0 0 10 -10v-10a10 10 0 0 1 10 -10"></path>
</g>
<path d="M 288 31 h 20 m -10 -10 v 20 m 10 -20 v 20"></path>
</g>
</svg>
