<svg xmlns="http://www.w3.org/2000/svg" class="railroad-diagram" width="577" height="92" viewBox="0 0 577 92">
<style>.railroad-diagram { background: transparent; }
.railroad-diagram path { stroke-width: 2; stroke: #374151; fill: none; }
.railroad-diagram text { font: bold 13px monospace; text-anchor: middle; fill: #111827; }
.railroad-diagram text.comment { font: italic 12px monospace; fill: #6b7280; }
.railroad-diagram rect { stroke-width: 2; stroke: #374151; fill: #f3f4f6; }</style>
<g transform="translate(.5 .5)">
<path d="M 20 21 v 20 m 10 -20 v 20 m -10 -10 h 20.5"></path>
<path d="M40 31h10"></path>
<g>
<path d="M50 31h0"></path>
<path d="M118 31h0"></path>
<rect x="50" y="20" width="68" height="22" rx="10" ry="10"></rect>
<text x="84" y="35">REPAIR</text>
</g>
<path d="M118 31h10"></path>
<g>
<path d="M128 31h0"></path>
<path d="M328 31h0"></path>
<path d="M128 31h20"></path>
<g>
<path d="M148 31h0"></path>
<path d="M308 31h0"></path>
<path d="M148 31h10"></path>
<g>
<path d="M158 31h0"></path>
<path d="M234 31h0"></path>
<rect x="158" y="20" width="76" height="22" rx="10" ry="10"></rect>
<text x="196" y="35">ARCHIVE</text>
</g>
<path d="M234 31h10"></path>
<path d="M244 31h10"></path>
<g>
<path d="M254 31h0"></path>
<path d="M298 31h0"></path>
<rect x="254" y="20" width="44" height="22" rx="10" ry="10"></rect>
<text x="276" y="35">LOG</text>
</g>
<path d="M298 31h10"></path>
</g>
<path d="M308 31h20"></path>
<path d="M128 31a10 10 0 0 1 10 10v10a10 10 0 0 0 10 10"></path>
<g>
<path d="M148 61h30"></path>
<path d="M278 61h30"></path>
<rect x="178" y="50" width="100" height="22" rx="10" ry="10"></rect>
<text x="228" y="65">ARCHIVELOG</text>
</g>
<path d="M308 61a10 10 0 0 0 10 -10v-10a10 10 0 0 1 10 -10"></path>
</g>
<path d="M328 31h10"></path>
<g>
<path d="M338 31h0"></path>
<path d="M422 31h0"></path>
<rect x="338" y="20" width="84" height="22" rx="10" ry="10"></rect>
<text x="380" y="35">DATABASE</text>
</g>
<path d="M422 31h10"></path>
<path d="M432 31h10"></path>
<g>
<path d="M442 31h0"></path>
<path d="M526 31h0"></path>
<rect x="442" y="20" width="84" height="22"></rect>
<text x="484" y="35">ini&#95;path</text>
</g>
<path d="M526 31h10"></path>
<path d="M 536 31 h 20 m -10 -10 v 20 m 10 -20 v 20"></path>
</g>
</svg>
