<svg xmlns="http://www.w3.org/2000/svg" class="railroad-diagram" width="945" height="536" viewBox="0 0 945 536">
<style>.railroad-diagram { background: transparent; }
.railroad-diagram path { stroke-width: 2; stroke: #374151; fill: none; }
.railroad-diagram text { font: bold 13px monospace; text-anchor: middle; fill: #111827; }
.railroad-diagram text.comment { font: italic 12px monospace; fill: #6b7280; }
.railroad-diagram rect { stroke-width: 2; stroke: #374151; fill: #f3f4f6; }</style>
<g transform="translate(0,0)"><g transform="translate(.5 .5)">
<path d="M 20 31 v 20 m 0 -10 h 20.5"></path>
<path d="M40 41h10"></path>
<g>
<path d="M50 41h0"></path>
<path d="M126 41h0"></path>
<rect x="50" y="30" width="76" height="22" rx="10" ry="10"></rect>
<text x="88" y="45">RESTORE</text>
</g>
<path d="M126 41h10"></path>
<path d="M136 41h10"></path>
<g>
<path d="M146 41h0"></path>
<path d="M230 41h0"></path>
<rect x="146" y="30" width="84" height="22" rx="10" ry="10"></rect>
<text x="188" y="45">DATABASE</text>
</g>
<path d="M230 41h10"></path>
<path d="M240 41h10"></path>
<g>
<path d="M250 41h0"></path>
<path d="M334 41h0"></path>
<rect x="250" y="30" width="84" height="22"></rect>
<text x="292" y="45">ini&#95;path</text>
</g>
<path d="M334 41h10"></path>
<path d="M344 41h10"></path>
<g>
<path d="M354 41h0"></path>
<path d="M454 41h0"></path>
<rect x="354" y="30" width="100" height="22" rx="10" ry="10"></rect>
<text x="404" y="45">TABLESPACE</text>
</g>
<path d="M454 41h10"></path>
<path d="M464 41h10"></path>
<g>
<path d="M474 41h0"></path>
<path d="M526 41h0"></path>
<rect x="474" y="30" width="52" height="22"></rect>
<text x="500" y="45">表空间名</text>
</g>
<path d="M526 41h10"></path>
<g>
<path d="M536 41h0"></path>
<path d="M728 41h0"></path>
<path d="M536 41a10 10 0 0 0 10 -10v0a10 10 0 0 1 10 -10"></path>
<g>
<path d="M556 21h152"></path>
</g>
<path d="M708 21a10 10 0 0 1 10 10v0a10 10 0 0 0 10 10"></path>
<path d="M536 41h20"></path>
<g>
<path d="M556 41h0"></path>
<path d="M708 41h0"></path>
<path d="M556 41h10"></path>
<g>
<path d="M566 41h0"></path>
<path d="M618 41h0"></path>
<rect x="566" y="30" width="52" height="22" rx="10" ry="10"></rect>
<text x="592" y="45">WITH</text>
</g>
<path d="M618 41h10"></path>
<path d="M628 41h10"></path>
<g>
<path d="M638 41h0"></path>
<path d="M698 41h0"></path>
<rect x="638" y="30" width="60" height="22" rx="10" ry="10"></rect>
<text x="668" y="45">CHECK</text>
</g>
<path d="M698 41h10"></path>
</g>
<path d="M708 41h20"></path>
</g>
<path d="M 728 41 h 20 m 0 -10 v 20"></path>
</g>
</g>
<g transform="translate(0,86)"><g transform="translate(.5 .5)">
<path d="M 20 31 v 20 m 0 -10 h 20.5"></path>
<g>
<path d="M40 41h0"></path>
<path d="M316 41h0"></path>
<path d="M40 41a10 10 0 0 0 10 -10v0a10 10 0 0 1 10 -10"></path>
<g>
<path d="M60 21h236"></path>
</g>
<path d="M296 21a10 10 0 0 1 10 10v0a10 10 0 0 0 10 10"></path>
<path d="M40 41h20"></path>
<g>
<path d="M60 41h0"></path>
<path d="M296 41h0"></path>
<path d="M60 41h20"></path>
<g>
<path d="M80 41h0"></path>
<path d="M276 41h0"></path>
<path d="M80 41h10"></path>
<g>
<path d="M90 41h0"></path>
<path d="M174 41h0"></path>
<rect x="90" y="30" width="84" height="22" rx="10" ry="10"></rect>
<text x="132" y="45">DATAFILE</text>
</g>
<path d="M174 41h10"></path>
<path d="M184 41h10"></path>
<g>
<path d="M194 41h0"></path>
<path d="M266 41h0"></path>
<path d="M194 41h10"></path>
<g>
<path d="M204 41h0"></path>
<path d="M256 41h0"></path>
<rect x="204" y="30" width="52" height="22"></rect>
<text x="230" y="45">文件编号</text>
</g>
<path d="M256 41h10"></path>
<path d="M204 41a10 10 0 0 0 -10 10v10a10 10 0 0 0 10 10"></path>
<g>
<path d="M204 71h12"></path>
<path d="M244 71h12"></path>
<rect x="216" y="60" width="28" height="22" rx="10" ry="10"></rect>
<text x="230" y="75">,</text>
</g>
<path d="M256 71a10 10 0 0 0 10 -10v-10a10 10 0 0 0 -10 -10"></path>
</g>
<path d="M266 41h10"></path>
</g>
<path d="M276 41h20"></path>
<path d="M60 41a10 10 0 0 1 10 10v40a10 10 0 0 0 10 10"></path>
<g>
<path d="M80 101h62"></path>
<path d="M214 101h62"></path>
<path d="M142 101h10"></path>
<g>
<path d="M152 101h0"></path>
<path d="M204 101h0"></path>
<rect x="152" y="90" width="52" height="22"></rect>
<text x="178" y="105">文件路径</text>
</g>
<path d="M204 101h10"></path>
<path d="M152 101a10 10 0 0 0 -10 10v10a10 10 0 0 0 10 10"></path>
<g>
<path d="M152 131h12"></path>
<path d="M192 131h12"></path>
<rect x="164" y="120" width="28" height="22" rx="10" ry="10"></rect>
<text x="178" y="135">,</text>
</g>
<path d="M204 131a10 10 0 0 0 10 -10v-10a10 10 0 0 0 -10 -10"></path>
</g>
<path d="M276 101a10 10 0 0 0 10 -10v-40a10 10 0 0 1 10 -10"></path>
</g>
<path d="M296 41h20"></path>
</g>
<path d="M316 41h10"></path>
<g>
<path d="M326 41h0"></path>
<path d="M434 41h0"></path>
<rect x="326" y="30" width="108" height="22"></rect>
<text x="380" y="45">from&#95;clause</text>
</g>
<path d="M434 41h10"></path>
<g>
<path d="M444 41h0"></path>
<path d="M632 41h0"></path>
<path d="M444 41a10 10 0 0 0 10 -10v0a10 10 0 0 1 10 -10"></path>
<g>
<path d="M464 21h148"></path>
</g>
<path d="M612 21a10 10 0 0 1 10 10v0a10 10 0 0 0 10 10"></path>
<path d="M444 41h20"></path>
<g>
<path d="M464 41h0"></path>
<path d="M612 41h0"></path>
<rect x="464" y="30" width="148" height="22"></rect>
<text x="538" y="45">device&#95;type&#95;stmt</text>
</g>
<path d="M612 41h20"></path>
</g>
<g>
<path d="M632 41h0"></path>
<path d="M904 41h0"></path>
<path d="M632 41a10 10 0 0 0 10 -10v0a10 10 0 0 1 10 -10"></path>
<g>
<path d="M652 21h232"></path>
</g>
<path d="M884 21a10 10 0 0 1 10 10v0a10 10 0 0 0 10 10"></path>
<path d="M632 41h20"></path>
<g>
<path d="M652 41h0"></path>
<path d="M884 41h0"></path>
<path d="M652 41h10"></path>
<g>
<path d="M662 41h0"></path>
<path d="M762 41h0"></path>
<rect x="662" y="30" width="100" height="22" rx="10" ry="10"></rect>
<text x="712" y="45">IDENTIFIED</text>
</g>
<path d="M762 41h10"></path>
<path d="M772 41h10"></path>
<g>
<path d="M782 41h0"></path>
<path d="M818 41h0"></path>
<rect x="782" y="30" width="36" height="22" rx="10" ry="10"></rect>
<text x="800" y="45">BY</text>
</g>
<path d="M818 41h10"></path>
<path d="M828 41h10"></path>
<g>
<path d="M838 41h0"></path>
<path d="M874 41h0"></path>
<rect x="838" y="30" width="36" height="22"></rect>
<text x="856" y="45">密码</text>
</g>
<path d="M874 41h10"></path>
</g>
<path d="M884 41h20"></path>
</g>
<path d="M 904 41 h 20 m 0 -10 v 20"></path>
</g>
</g>
<g transform="translate(0,262)"><g transform="translate(.5 .5)">
<path d="M 20 31 v 20 m 0 -10 h 20.5"></path>
<g>
<path d="M40 41h0"></path>
<path d="M320 41h0"></path>
<path d="M40 41a10 10 0 0 0 10 -10v0a10 10 0 0 1 10 -10"></path>
<g>
<path d="M60 21h240"></path>
</g>
<path d="M300 21a10 10 0 0 1 10 10v0a10 10 0 0 0 10 10"></path>
<path d="M40 41h20"></path>
<g>
<path d="M60 41h0"></path>
<path d="M300 41h0"></path>
<path d="M60 41h10"></path>
<g>
<path d="M70 41h0"></path>
<path d="M146 41h0"></path>
<rect x="70" y="30" width="76" height="22" rx="10" ry="10"></rect>
<text x="108" y="45">ENCRYPT</text>
</g>
<path d="M146 41h10"></path>
<path d="M156 41h10"></path>
<g>
<path d="M166 41h0"></path>
<path d="M218 41h0"></path>
<rect x="166" y="30" width="52" height="22" rx="10" ry="10"></rect>
<text x="192" y="45">WITH</text>
</g>
<path d="M218 41h10"></path>
<path d="M228 41h10"></path>
<g>
<path d="M238 41h0"></path>
<path d="M290 41h0"></path>
<rect x="238" y="30" width="52" height="22"></rect>
<text x="264" y="45">加密算法</text>
</g>
<path d="M290 41h10"></path>
</g>
<path d="M300 41h20"></path>
</g>
<g>
<path d="M320 41h0"></path>
<path d="M660 41h0"></path>
<path d="M320 41a10 10 0 0 0 10 -10v0a10 10 0 0 1 10 -10"></path>
<g>
<path d="M340 21h300"></path>
</g>
<path d="M640 21a10 10 0 0 1 10 10v0a10 10 0 0 0 10 10"></path>
<path d="M320 41h20"></path>
<g>
<path d="M340 41h0"></path>
<path d="M640 41h0"></path>
<path d="M340 41h10"></path>
<g>
<path d="M350 41h0"></path>
<path d="M402 41h0"></path>
<rect x="350" y="30" width="52" height="22" rx="10" ry="10"></rect>
<text x="376" y="45">WITH</text>
</g>
<path d="M402 41h10"></path>
<path d="M412 41h10"></path>
<g>
<path d="M422 41h0"></path>
<path d="M514 41h0"></path>
<rect x="422" y="30" width="92" height="22" rx="10" ry="10"></rect>
<text x="468" y="45">BACKUPDIR</text>
</g>
<path d="M514 41h10"></path>
<path d="M524 41h10"></path>
<g>
<path d="M534 41h0"></path>
<path d="M630 41h0"></path>
<path d="M534 41h10"></path>
<g>
<path d="M544 41h0"></path>
<path d="M620 41h0"></path>
<rect x="544" y="30" width="76" height="22"></rect>
<text x="582" y="45">基备份搜索目录</text>
</g>
<path d="M620 41h10"></path>
<path d="M544 41a10 10 0 0 0 -10 10v10a10 10 0 0 0 10 10"></path>
<g>
<path d="M544 71h24"></path>
<path d="M596 71h24"></path>
<rect x="568" y="60" width="28" height="22" rx="10" ry="10"></rect>
<text x="582" y="75">,</text>
</g>
<path d="M620 71a10 10 0 0 0 10 -10v-10a10 10 0 0 0 -10 -10"></path>
</g>
<path d="M630 41h10"></path>
</g>
<path d="M640 41h20"></path>
</g>
<path d="M 660 41 h 20 m 0 -10 v 20"></path>
</g>
</g>
<g transform="translate(0,378)"><g transform="translate(.5 .5)">
<path d="M 20 31 v 20 m 0 -10 h 20.5"></path>
<g>
<path d="M40 41h0"></path>
<path d="M328 41h0"></path>
<path d="M40 41a10 10 0 0 0 10 -10v0a10 10 0 0 1 10 -10"></path>
<g>
<path d="M60 21h248"></path>
</g>
<path d="M308 21a10 10 0 0 1 10 10v0a10 10 0 0 0 10 10"></path>
<path d="M40 41h20"></path>
<g>
<path d="M60 41h0"></path>
<path d="M308 41h0"></path>
<path d="M60 41h10"></path>
<g>
<path d="M70 41h0"></path>
<path d="M138 41h0"></path>
<rect x="70" y="30" width="68" height="22" rx="10" ry="10"></rect>
<text x="104" y="45">MAPPED</text>
</g>
<path d="M138 41h10"></path>
<path d="M148 41h10"></path>
<g>
<path d="M158 41h0"></path>
<path d="M210 41h0"></path>
<rect x="158" y="30" width="52" height="22" rx="10" ry="10"></rect>
<text x="184" y="45">FILE</text>
</g>
<path d="M210 41h10"></path>
<path d="M220 41h10"></path>
<g>
<path d="M230 41h0"></path>
<path d="M298 41h0"></path>
<rect x="230" y="30" width="68" height="22"></rect>
<text x="264" y="45">映射文件路径</text>
</g>
<path d="M298 41h10"></path>
</g>
<path d="M308 41h20"></path>
</g>
<g>
<path d="M328 41h0"></path>
<path d="M592 41h0"></path>
<path d="M328 41a10 10 0 0 0 10 -10v0a10 10 0 0 1 10 -10"></path>
<g>
<path d="M348 21h224"></path>
</g>
<path d="M572 21a10 10 0 0 1 10 10v0a10 10 0 0 0 10 10"></path>
<path d="M328 41h20"></path>
<g>
<path d="M348 41h0"></path>
<path d="M572 41h0"></path>
<path d="M348 41h10"></path>
<g>
<path d="M358 41h0"></path>
<path d="M410 41h0"></path>
<rect x="358" y="30" width="52" height="22" rx="10" ry="10"></rect>
<text x="384" y="45">TASK</text>
</g>
<path d="M410 41h10"></path>
<path d="M420 41h10"></path>
<g>
<path d="M430 41h0"></path>
<path d="M498 41h0"></path>
<rect x="430" y="30" width="68" height="22" rx="10" ry="10"></rect>
<text x="464" y="45">THREAD</text>
</g>
<path d="M498 41h10"></path>
<path d="M508 41h10"></path>
<g>
<path d="M518 41h0"></path>
<path d="M562 41h0"></path>
<rect x="518" y="30" width="44" height="22"></rect>
<text x="540" y="45">线程数</text>
</g>
<path d="M562 41h10"></path>
</g>
<path d="M572 41h20"></path>
</g>
<g>
<path d="M592 41h0"></path>
<path d="M816 41h0"></path>
<path d="M592 41a10 10 0 0 0 10 -10v0a10 10 0 0 1 10 -10"></path>
<g>
<path d="M612 21h184"></path>
</g>
<path d="M796 21a10 10 0 0 1 10 10v0a10 10 0 0 0 10 10"></path>
<path d="M592 41h20"></path>
<g>
<path d="M612 41h0"></path>
<path d="M796 41h0"></path>
<path d="M612 41h10"></path>
<g>
<path d="M622 41h0"></path>
<path d="M690 41h0"></path>
<rect x="622" y="30" width="68" height="22" rx="10" ry="10"></rect>
<text x="656" y="45">IGNORE</text>
</g>
<path d="M690 41h10"></path>
<path d="M700 41h10"></path>
<g>
<path d="M710 41h0"></path>
<path d="M786 41h0"></path>
<rect x="710" y="30" width="76" height="22" rx="10" ry="10"></rect>
<text x="748" y="45">CORRUPT</text>
</g>
<path d="M786 41h10"></path>
</g>
<path d="M796 41h20"></path>
</g>
<path d="M 816 41 h 20 m 0 -10 v 20"></path>
</g>
</g>
<g transform="translate(0,464)"><g transform="translate(.5 .5)">
<path d="M 20 31 v 20 m 0 -10 h 20.5"></path>
<g>
<path d="M40 41h0"></path>
<path d="M232 41h0"></path>
<path d="M40 41a10 10 0 0 0 10 -10v0a10 10 0 0 1 10 -10"></path>
<g>
<path d="M60 21h152"></path>
</g>
<path d="M212 21a10 10 0 0 1 10 10v0a10 10 0 0 0 10 10"></path>
<path d="M40 41h20"></path>
<g>
<path d="M60 41h0"></path>
<path d="M212 41h0"></path>
<path d="M60 41h10"></path>
<g>
<path d="M70 41h0"></path>
<path d="M122 41h0"></path>
<rect x="70" y="30" width="52" height="22" rx="10" ry="10"></rect>
<text x="96" y="45">AUTO</text>
</g>
<path d="M122 41h10"></path>
<path d="M132 41h10"></path>
<g>
<path d="M142 41h0"></path>
<path d="M202 41h0"></path>
<rect x="142" y="30" width="60" height="22" rx="10" ry="10"></rect>
<text x="172" y="45">CLEAR</text>
</g>
<path d="M202 41h10"></path>
</g>
<path d="M212 41h20"></path>
</g>
<path d="M 232 41 h 20 m 0 -10 v 20"></path>
</g>
</g>
</svg>
