<svg xmlns="http://www.w3.org/2000/svg" class="railroad-diagram" width="929" height="294" viewBox="0 0 929 294">
<style>.railroad-diagram { background: transparent; }
.railroad-diagram path { stroke-width: 2; stroke: #374151; fill: none; }
.railroad-diagram text { font: bold 13px monospace; text-anchor: middle; fill: #111827; }
.railroad-diagram text.comment { font: italic 12px monospace; fill: #6b7280; }
.railroad-diagram rect { stroke-width: 2; stroke: #374151; fill: #f3f4f6; }</style>
<g transform="translate(0,0)"><g transform="translate(.5 .5)">
<path d="M 20 41 v 20 m 0 -10 h 20.5"></path>
<path d="M40 51h10"></path>
<g>
<path d="M50 51h0"></path>
<path d="M110 51h0"></path>
<rect x="50" y="40" width="60" height="22" rx="10" ry="10"></rect>
<text x="80" y="55">CHECK</text>
</g>
<path d="M110 51h10"></path>
<path d="M120 51h10"></path>
<g>
<path d="M130 51h0"></path>
<path d="M222 51h0"></path>
<rect x="130" y="40" width="92" height="22" rx="10" ry="10"></rect>
<text x="176" y="55">BACKUPSET</text>
</g>
<path d="M222 51h10"></path>
<path d="M232 51h10"></path>
<g>
<path d="M242 51h0"></path>
<path d="M302 51h0"></path>
<rect x="242" y="40" width="60" height="22"></rect>
<text x="272" y="55">备份集目录</text>
</g>
<path d="M302 51h10"></path>
<g>
<path d="M312 51h0"></path>
<path d="M860 51h0"></path>
<path d="M312 51a10 10 0 0 0 10 -10v-9a10 10 0 0 1 10 -10"></path>
<g>
<path d="M332 22h508"></path>
</g>
<path d="M840 22a10 10 0 0 1 10 10v9a10 10 0 0 0 10 10"></path>
<path d="M312 51h20"></path>
<g>
<path d="M332 51h0"></path>
<path d="M840 51h0"></path>
<path d="M332 51h10"></path>
<g>
<path d="M342 51h0"></path>
<path d="M410 51h0"></path>
<rect x="342" y="40" width="68" height="22" rx="10" ry="10"></rect>
<text x="376" y="55">DEVICE</text>
</g>
<path d="M410 51h10"></path>
<path d="M420 51h10"></path>
<g>
<path d="M430 51h0"></path>
<path d="M482 51h0"></path>
<rect x="430" y="40" width="52" height="22" rx="10" ry="10"></rect>
<text x="456" y="55">TYPE</text>
</g>
<path d="M482 51h10"></path>
<g>
<path d="M492 51h0"></path>
<path d="M648 51h0"></path>
<path d="M492 51h20"></path>
<g>
<path d="M512 51h0"></path>
<path d="M628 51h0"></path>
<path d="M512 51h10"></path>
<g>
<path d="M522 51h0"></path>
<path d="M574 51h0"></path>
<rect x="522" y="40" width="52" height="22" rx="10" ry="10"></rect>
<text x="548" y="55">DISK</text>
</g>
<path d="M574 51h10"></path>
<path d="M584 51h10"></path>
<g>
<path d="M594 51h0"></path>
<path d="M618 51h0"></path>
<text x="606" y="56" class="comment">默认</text>
</g>
<path d="M618 51h10"></path>
</g>
<path d="M628 51h20"></path>
<path d="M492 51a10 10 0 0 1 10 10v10a10 10 0 0 0 10 10"></path>
<g>
<path d="M512 81h32"></path>
<path d="M596 81h32"></path>
<rect x="544" y="70" width="52" height="22" rx="10" ry="10"></rect>
<text x="570" y="85">TAPE</text>
</g>
<path d="M628 81a10 10 0 0 0 10 -10v-10a10 10 0 0 1 10 -10"></path>
</g>
<g>
<path d="M648 51h0"></path>
<path d="M840 51h0"></path>
<path d="M648 51a10 10 0 0 0 10 -10v0a10 10 0 0 1 10 -10"></path>
<g>
<path d="M668 31h152"></path>
</g>
<path d="M820 31a10 10 0 0 1 10 10v0a10 10 0 0 0 10 10"></path>
<path d="M648 51h20"></path>
<g>
<path d="M668 51h0"></path>
<path d="M820 51h0"></path>
<path d="M668 51h10"></path>
<g>
<path d="M678 51h0"></path>
<path d="M738 51h0"></path>
<rect x="678" y="40" width="60" height="22" rx="10" ry="10"></rect>
<text x="708" y="55">PARMS</text>
</g>
<path d="M738 51h10"></path>
<path d="M748 51h10"></path>
<g>
<path d="M758 51h0"></path>
<path d="M810 51h0"></path>
<rect x="758" y="40" width="52" height="22"></rect>
<text x="784" y="55">介质参数</text>
</g>
<path d="M810 51h10"></path>
</g>
<path d="M820 51h20"></path>
</g>
</g>
<path d="M840 51h20"></path>
</g>
<path d="M 860 51 h 20 m 0 -10 v 20"></path>
</g>
</g>
<g transform="translate(0,126)"><g transform="translate(.5 .5)">
<path d="M 20 41 v 20 m 0 -10 h 20.5"></path>
<g>
<path d="M40 51h0"></path>
<path d="M288 51h0"></path>
<path d="M40 51a10 10 0 0 0 10 -10v0a10 10 0 0 1 10 -10"></path>
<g>
<path d="M60 31h208"></path>
</g>
<path d="M268 31a10 10 0 0 1 10 10v0a10 10 0 0 0 10 10"></path>
<path d="M40 51h20"></path>
<g>
<path d="M60 51h0"></path>
<path d="M268 51h0"></path>
<path d="M60 51h10"></path>
<g>
<path d="M70 51h0"></path>
<path d="M154 51h0"></path>
<rect x="70" y="40" width="84" height="22" rx="10" ry="10"></rect>
<text x="112" y="55">DATABASE</text>
</g>
<path d="M154 51h10"></path>
<path d="M164 51h10"></path>
<g>
<path d="M174 51h0"></path>
<path d="M258 51h0"></path>
<rect x="174" y="40" width="84" height="22"></rect>
<text x="216" y="55">INI&#95;PATH</text>
</g>
<path d="M258 51h10"></path>
</g>
<path d="M268 51h20"></path>
</g>
<g>
<path d="M288 51h0"></path>
<path d="M888 51h0"></path>
<path d="M288 51a10 10 0 0 0 10 -10v-9a10 10 0 0 1 10 -10"></path>
<g>
<path d="M308 22h560"></path>
</g>
<path d="M868 22a10 10 0 0 1 10 10v9a10 10 0 0 0 10 10"></path>
<path d="M288 51h20"></path>
<g>
<path d="M308 51h0"></path>
<path d="M868 51h0"></path>
<path d="M308 51h10"></path>
<g>
<path d="M318 51h0"></path>
<path d="M418 51h0"></path>
<rect x="318" y="40" width="100" height="22" rx="10" ry="10"></rect>
<text x="368" y="55">IDENTIFIED</text>
</g>
<path d="M418 51h10"></path>
<path d="M428 51h10"></path>
<g>
<path d="M438 51h0"></path>
<path d="M474 51h0"></path>
<rect x="438" y="40" width="36" height="22" rx="10" ry="10"></rect>
<text x="456" y="55">BY</text>
</g>
<path d="M474 51h10"></path>
<path d="M484 51h10"></path>
<g>
<path d="M494 51h0"></path>
<path d="M546 51h0"></path>
<rect x="494" y="40" width="52" height="22"></rect>
<text x="520" y="55">备份密码</text>
</g>
<path d="M546 51h10"></path>
<g>
<path d="M556 51h0"></path>
<path d="M868 51h0"></path>
<path d="M556 51a10 10 0 0 0 10 -10v0a10 10 0 0 1 10 -10"></path>
<g>
<path d="M576 31h272"></path>
</g>
<path d="M848 31a10 10 0 0 1 10 10v0a10 10 0 0 0 10 10"></path>
<path d="M556 51h20"></path>
<g>
<path d="M576 51h0"></path>
<path d="M848 51h0"></path>
<path d="M576 51h10"></path>
<g>
<path d="M586 51h0"></path>
<path d="M662 51h0"></path>
<rect x="586" y="40" width="76" height="22" rx="10" ry="10"></rect>
<text x="624" y="55">ENCRYPT</text>
</g>
<path d="M662 51h10"></path>
<path d="M672 51h10"></path>
<g>
<path d="M682 51h0"></path>
<path d="M734 51h0"></path>
<rect x="682" y="40" width="52" height="22" rx="10" ry="10"></rect>
<text x="708" y="55">WITH</text>
</g>
<path d="M734 51h10"></path>
<path d="M744 51h10"></path>
<g>
<path d="M754 51h0"></path>
<path d="M838 51h0"></path>
<rect x="754" y="40" width="84" height="22"></rect>
<text x="796" y="55">备份加密算法名称</text>
</g>
<path d="M838 51h10"></path>
</g>
<path d="M848 51h20"></path>
</g>
</g>
<path d="M868 51h20"></path>
</g>
<path d="M 888 51 h 20 m 0 -10 v 20"></path>
</g>
</g>
<g transform="translate(0,222)"><g transform="translate(.5 .5)">
<path d="M 20 31 v 20 m 0 -10 h 20.5"></path>
<g>
<path d="M40 41h0"></path>
<path d="M232 41h0"></path>
<path d="M40 41a10 10 0 0 0 10 -10v0a10 10 0 0 1 10 -10"></path>
<g>
<path d="M60 21h152"></path>
</g>
<path d="M212 21a10 10 0 0 1 10 10v0a10 10 0 0 0 10 10"></path>
<path d="M40 41h20"></path>
<g>
<path d="M60 41h0"></path>
<path d="M212 41h0"></path>
<path d="M60 41h10"></path>
<g>
<path d="M70 41h0"></path>
<path d="M130 41h0"></path>
<rect x="70" y="30" width="60" height="22" rx="10" ry="10"></rect>
<text x="100" y="45">LEVEL</text>
</g>
<path d="M130 41h10"></path>
<path d="M140 41h10"></path>
<g>
<path d="M150 41h0"></path>
<path d="M202 41h0"></path>
<rect x="150" y="30" width="52" height="22"></rect>
<text x="176" y="45">校验级别</text>
</g>
<path d="M202 41h10"></path>
</g>
<path d="M212 41h20"></path>
</g>
<path d="M 232 41 h 20 m 0 -10 v 20"></path>
</g>
</g>
</svg>
