<svg xmlns="http://www.w3.org/2000/svg" class="railroad-diagram" width="413" height="92" viewBox="0 0 413 92">
<style>.railroad-diagram { background: transparent; }
.railroad-diagram path { stroke-width: 2; stroke: #374151; fill: none; }
.railroad-diagram text { font: bold 13px monospace; text-anchor: middle; fill: #111827; }
.railroad-diagram text.comment { font: italic 12px monospace; fill: #6b7280; }
.railroad-diagram rect { stroke-width: 2; stroke: #374151; fill: #f3f4f6; }</style>
<g transform="translate(.5 .5)">
<path d="M 20 51 v 20 m 10 -20 v 20 m -10 -10 h 20.5"></path>
<path d="M40 61h10"></path>
<g>
<path d="M50 61h0"></path>
<path d="M94 61h0"></path>
<rect x="50" y="50" width="44" height="22" rx="10" ry="10"></rect>
<text x="72" y="65">SET</text>
</g>
<path d="M94 61h10"></path>
<path d="M104 61h10"></path>
<g>
<path d="M114 61h0"></path>
<path d="M214 61h0"></path>
<rect x="114" y="50" width="100" height="22" rx="10" ry="10"></rect>
<text x="164" y="65">AUTORECONN</text>
</g>
<path d="M214 61h10"></path>
<g>
<path d="M224 61h0"></path>
<path d="M372 61h0"></path>
<path d="M224 61a10 10 0 0 0 10 -10v-10a10 10 0 0 1 10 -10"></path>
<g>
<path d="M244 31h36"></path>
<path d="M316 31h36"></path>
<rect x="280" y="20" width="36" height="22" rx="10" ry="10"></rect>
<text x="298" y="35">ON</text>
</g>
<path d="M352 31a10 10 0 0 1 10 10v10a10 10 0 0 0 10 10"></path>
<path d="M224 61h20"></path>
<g>
<path d="M244 61h0"></path>
<path d="M352 61h0"></path>
<path d="M244 61h10"></path>
<g>
<path d="M254 61h0"></path>
<path d="M298 61h0"></path>
<rect x="254" y="50" width="44" height="22" rx="10" ry="10"></rect>
<text x="276" y="65">OFF</text>
</g>
<path d="M298 61h10"></path>
<path d="M308 61h10"></path>
<g>
<path d="M318 61h0"></path>
<path d="M342 61h0"></path>
<text x="330" y="66" class="comment">默认</text>
</g>
<path d="M342 61h10"></path>
</g>
<path d="M352 61h20"></path>
</g>
<path d="M 372 61 h 20 m -10 -10 v 20 m 10 -20 v 20"></path>
</g>
</svg>
