<svg xmlns="http://www.w3.org/2000/svg" class="railroad-diagram" width="405" height="212" viewBox="0 0 405 212">
<style>.railroad-diagram { background: transparent; }
.railroad-diagram path { stroke-width: 2; stroke: #374151; fill: none; }
.railroad-diagram text { font: bold 13px monospace; text-anchor: middle; fill: #111827; }
.railroad-diagram text.comment { font: italic 12px monospace; fill: #6b7280; }
.railroad-diagram rect { stroke-width: 2; stroke: #374151; fill: #f3f4f6; }
@media (prefers-color-scheme: dark) {
  .railroad-diagram path { stroke: #7c8fa8; }
  .railroad-diagram text { fill: #e2e8f0; }
  .railroad-diagram text.comment { fill: #94a3b8; }
  .railroad-diagram rect { stroke: #5b7fa6; fill: #1e2d45; }
}</style>
<g transform="translate(.5 .5)">
<path d="M 20 21 v 20 m 10 -20 v 20 m -10 -10 h 20.5"></path>
<path d="M40 31h10"></path>
<g>
<path d="M50 31h0"></path>
<path d="M94 31h0"></path>
<rect x="50" y="20" width="44" height="22" rx="10" ry="10"></rect>
<text x="72" y="35">SET</text>
</g>
<path d="M94 31h10"></path>
<path d="M104 31h10"></path>
<g>
<path d="M114 31h0"></path>
<path d="M206 31h0"></path>
<rect x="114" y="20" width="92" height="22" rx="10" ry="10"></rect>
<text x="160" y="35">AUTOTRACE</text>
</g>
<path d="M206 31h10"></path>
<g>
<path d="M216 31h0"></path>
<path d="M364 31h0"></path>
<path d="M216 31h20"></path>
<g>
<path d="M236 31h0"></path>
<path d="M344 31h0"></path>
<path d="M236 31h10"></path>
<g>
<path d="M246 31h0"></path>
<path d="M290 31h0"></path>
<rect x="246" y="20" width="44" height="22" rx="10" ry="10"></rect>
<text x="268" y="35">OFF</text>
</g>
<path d="M290 31h10"></path>
<path d="M300 31h10"></path>
<g>
<path d="M310 31h0"></path>
<path d="M334 31h0"></path>
<text x="322" y="36" class="comment">默认</text>
</g>
<path d="M334 31h10"></path>
</g>
<path d="M344 31h20"></path>
<path d="M216 31a10 10 0 0 1 10 10v10a10 10 0 0 0 10 10"></path>
<g>
<path d="M236 61h36"></path>
<path d="M308 61h36"></path>
<rect x="272" y="50" width="36" height="22" rx="10" ry="10"></rect>
<text x="290" y="65">NL</text>
</g>
<path d="M344 61a10 10 0 0 0 10 -10v-10a10 10 0 0 1 10 -10"></path>
<path d="M216 31a10 10 0 0 1 10 10v40a10 10 0 0 0 10 10"></path>
<g>
<path d="M236 91h24"></path>
<path d="M320 91h24"></path>
<rect x="260" y="80" width="60" height="22" rx="10" ry="10"></rect>
<text x="290" y="95">INDEX</text>
</g>
<path d="M344 91a10 10 0 0 0 10 -10v-40a10 10 0 0 1 10 -10"></path>
<path d="M216 31a10 10 0 0 1 10 10v70a10 10 0 0 0 10 10"></path>
<g>
<path d="M236 121h36"></path>
<path d="M308 121h36"></path>
<rect x="272" y="110" width="36" height="22" rx="10" ry="10"></rect>
<text x="290" y="125">ON</text>
</g>
<path d="M344 121a10 10 0 0 0 10 -10v-70a10 10 0 0 1 10 -10"></path>
<path d="M216 31a10 10 0 0 1 10 10v100a10 10 0 0 0 10 10"></path>
<g>
<path d="M236 151h24"></path>
<path d="M320 151h24"></path>
<rect x="260" y="140" width="60" height="22" rx="10" ry="10"></rect>
<text x="290" y="155">TRACE</text>
</g>
<path d="M344 151a10 10 0 0 0 10 -10v-100a10 10 0 0 1 10 -10"></path>
<path d="M216 31a10 10 0 0 1 10 10v130a10 10 0 0 0 10 10"></path>
<g>
<path d="M236 181h8"></path>
<path d="M336 181h8"></path>
<rect x="244" y="170" width="92" height="22" rx="10" ry="10"></rect>
<text x="290" y="185">TRACEONLY</text>
</g>
<path d="M344 181a10 10 0 0 0 10 -10v-130a10 10 0 0 1 10 -10"></path>
</g>
<path d="M 364 31 h 20 m -10 -10 v 20 m 10 -20 v 20"></path>
</g>
</svg>
