<svg xmlns="http://www.w3.org/2000/svg" class="railroad-diagram" width="437" height="152" viewBox="0 0 437 152">
<style>.railroad-diagram { background: transparent; }
.railroad-diagram path { stroke-width: 2; stroke: #374151; fill: none; }
.railroad-diagram text { font: bold 13px monospace; text-anchor: middle; fill: #111827; }
.railroad-diagram text.comment { font: italic 12px monospace; fill: #6b7280; }
.railroad-diagram rect { stroke-width: 2; stroke: #374151; fill: #f3f4f6; }</style>
<g transform="translate(.5 .5)">
<path d="M 20 111 v 20 m 10 -20 v 20 m -10 -10 h 20.5"></path>
<path d="M40 121h10"></path>
<g>
<path d="M50 121h0"></path>
<path d="M94 121h0"></path>
<rect x="50" y="110" width="44" height="22" rx="10" ry="10"></rect>
<text x="72" y="125">SET</text>
</g>
<path d="M94 121h10"></path>
<path d="M104 121h10"></path>
<g>
<path d="M114 121h0"></path>
<path d="M206 121h0"></path>
<rect x="114" y="110" width="92" height="22" rx="10" ry="10"></rect>
<text x="160" y="125">CHAR&#95;CODE</text>
</g>
<path d="M206 121h10"></path>
<g>
<path d="M216 121h0"></path>
<path d="M396 121h0"></path>
<path d="M216 121a10 10 0 0 0 10 -10v-10a10 10 0 0 1 10 -10"></path>
<g>
<path d="M236 91h44"></path>
<path d="M332 91h44"></path>
<rect x="280" y="80" width="52" height="22" rx="10" ry="10"></rect>
<text x="306" y="95">UTF8</text>
</g>
<path d="M376 91a10 10 0 0 1 10 10v10a10 10 0 0 0 10 10"></path>
<path d="M216 121a10 10 0 0 0 10 -10v-40a10 10 0 0 1 10 -10"></path>
<g>
<path d="M236 61h32"></path>
<path d="M344 61h32"></path>
<rect x="268" y="50" width="76" height="22" rx="10" ry="10"></rect>
<text x="306" y="65">GB18030</text>
</g>
<path d="M376 61a10 10 0 0 1 10 10v40a10 10 0 0 0 10 10"></path>
<path d="M216 121a10 10 0 0 0 10 -10v-70a10 10 0 0 1 10 -10"></path>
<g>
<path d="M236 31h48"></path>
<path d="M328 31h48"></path>
<rect x="284" y="20" width="44" height="22" rx="10" ry="10"></rect>
<text x="306" y="35">GBK</text>
</g>
<path d="M376 31a10 10 0 0 1 10 10v70a10 10 0 0 0 10 10"></path>
<path d="M216 121h20"></path>
<g>
<path d="M236 121h0"></path>
<path d="M376 121h0"></path>
<path d="M236 121h10"></path>
<g>
<path d="M246 121h0"></path>
<path d="M322 121h0"></path>
<rect x="246" y="110" width="76" height="22" rx="10" ry="10"></rect>
<text x="284" y="125">DEFAULT</text>
</g>
<path d="M322 121h10"></path>
<path d="M332 121h10"></path>
<g>
<path d="M342 121h0"></path>
<path d="M366 121h0"></path>
<text x="354" y="126" class="comment">默认</text>
</g>
<path d="M366 121h10"></path>
</g>
<path d="M376 121h20"></path>
</g>
<path d="M 396 121 h 20 m -10 -10 v 20 m 10 -20 v 20"></path>
</g>
</svg>
