<svg xmlns="http://www.w3.org/2000/svg" class="railroad-diagram" width="485" height="152" viewBox="0 0 485 152">
<style>.railroad-diagram { background: transparent; }
.railroad-diagram path { stroke-width: 2; stroke: #374151; fill: none; }
.railroad-diagram text { font: bold 13px monospace; text-anchor: middle; fill: #111827; }
.railroad-diagram text.comment { font: italic 12px monospace; fill: #6b7280; }
.railroad-diagram rect { stroke-width: 2; stroke: #374151; fill: #f3f4f6; }</style>
<g transform="translate(.5 .5)">
<path d="M 20 21 v 20 m 10 -20 v 20 m -10 -10 h 20.5"></path>
<path d="M40 31h10"></path>
<g>
<path d="M50 31h0"></path>
<path d="M94 31h0"></path>
<rect x="50" y="20" width="44" height="22" rx="10" ry="10"></rect>
<text x="72" y="35">SET</text>
</g>
<path d="M94 31h10"></path>
<path d="M104 31h10"></path>
<g>
<path d="M114 31h0"></path>
<path d="M238 31h0"></path>
<rect x="114" y="20" width="124" height="22" rx="10" ry="10"></rect>
<text x="176" y="35">CONSOLE&#95;PRINT</text>
</g>
<path d="M238 31h10"></path>
<g>
<path d="M248 31h0"></path>
<path d="M444 31h0"></path>
<path d="M248 31h20"></path>
<g>
<path d="M268 31h28"></path>
<path d="M396 31h28"></path>
<path d="M296 31h10"></path>
<g>
<path d="M306 31h0"></path>
<path d="M342 31h0"></path>
<rect x="306" y="20" width="36" height="22" rx="10" ry="10"></rect>
<text x="324" y="35">ON</text>
</g>
<path d="M342 31h10"></path>
<path d="M352 31h10"></path>
<g>
<path d="M362 31h0"></path>
<path d="M386 31h0"></path>
<text x="374" y="36" class="comment">默认</text>
</g>
<path d="M386 31h10"></path>
</g>
<path d="M424 31h20"></path>
<path d="M248 31a10 10 0 0 1 10 10v10a10 10 0 0 0 10 10"></path>
<g>
<path d="M268 61h56"></path>
<path d="M368 61h56"></path>
<rect x="324" y="50" width="44" height="22" rx="10" ry="10"></rect>
<text x="346" y="65">OFF</text>
</g>
<path d="M424 61a10 10 0 0 0 10 -10v-10a10 10 0 0 1 10 -10"></path>
<path d="M248 31a10 10 0 0 1 10 10v40a10 10 0 0 0 10 10"></path>
<g>
<path d="M268 91h16"></path>
<path d="M408 91h16"></path>
<rect x="284" y="80" width="124" height="22" rx="10" ry="10"></rect>
<text x="346" y="95">OFF&#95;WITH&#95;TIME</text>
</g>
<path d="M424 91a10 10 0 0 0 10 -10v-40a10 10 0 0 1 10 -10"></path>
<path d="M248 31a10 10 0 0 1 10 10v70a10 10 0 0 0 10 10"></path>
<g>
<path d="M268 121h0"></path>
<path d="M424 121h0"></path>
<rect x="268" y="110" width="156" height="22" rx="10" ry="10"></rect>
<text x="346" y="125">OFF&#95;WITH&#95;FEEDBACK</text>
</g>
<path d="M424 121a10 10 0 0 0 10 -10v-70a10 10 0 0 1 10 -10"></path>
</g>
<path d="M 444 31 h 20 m -10 -10 v 20 m 10 -20 v 20"></path>
</g>
</svg>
