<svg xmlns="http://www.w3.org/2000/svg" class="railroad-diagram" width="373" height="122" viewBox="0 0 373 122">
<style>.railroad-diagram { background: transparent; }
.railroad-diagram path { stroke-width: 2; stroke: #374151; fill: none; }
.railroad-diagram text { font: bold 13px monospace; text-anchor: middle; fill: #111827; }
.railroad-diagram text.comment { font: italic 12px monospace; fill: #6b7280; }
.railroad-diagram rect { stroke-width: 2; stroke: #374151; fill: #f3f4f6; }
@media (prefers-color-scheme: dark) {
  .railroad-diagram path { stroke: #7c8fa8; }
  .railroad-diagram text { fill: #e2e8f0; }
  .railroad-diagram text.comment { fill: #94a3b8; }
  .railroad-diagram rect { stroke: #5b7fa6; fill: #1e2d45; }
}</style>
<g transform="translate(.5 .5)">
<path d="M 20 51 v 20 m 10 -20 v 20 m -10 -10 h 20.5"></path>
<path d="M40 61h10"></path>
<g>
<path d="M50 61h0"></path>
<path d="M94 61h0"></path>
<rect x="50" y="50" width="44" height="22" rx="10" ry="10"></rect>
<text x="72" y="65">SET</text>
</g>
<path d="M94 61h10"></path>
<path d="M104 61h10"></path>
<g>
<path d="M114 61h0"></path>
<path d="M182 61h0"></path>
<rect x="114" y="50" width="68" height="22" rx="10" ry="10"></rect>
<text x="148" y="65">DEFINE</text>
</g>
<path d="M182 61h10"></path>
<g>
<path d="M192 61h0"></path>
<path d="M332 61h0"></path>
<path d="M192 61a10 10 0 0 0 10 -10v-10a10 10 0 0 1 10 -10"></path>
<g>
<path d="M212 31h36"></path>
<path d="M276 31h36"></path>
<rect x="248" y="20" width="28" height="22"></rect>
<text x="262" y="35">c</text>
</g>
<path d="M312 31a10 10 0 0 1 10 10v10a10 10 0 0 0 10 10"></path>
<path d="M192 61h20"></path>
<g>
<path d="M212 61h0"></path>
<path d="M312 61h0"></path>
<path d="M212 61h10"></path>
<g>
<path d="M222 61h0"></path>
<path d="M258 61h0"></path>
<rect x="222" y="50" width="36" height="22" rx="10" ry="10"></rect>
<text x="240" y="65">ON</text>
</g>
<path d="M258 61h10"></path>
<path d="M268 61h10"></path>
<g>
<path d="M278 61h0"></path>
<path d="M302 61h0"></path>
<text x="290" y="66" class="comment">默认</text>
</g>
<path d="M302 61h10"></path>
</g>
<path d="M312 61h20"></path>
<path d="M192 61a10 10 0 0 1 10 10v10a10 10 0 0 0 10 10"></path>
<g>
<path d="M212 91h28"></path>
<path d="M284 91h28"></path>
<rect x="240" y="80" width="44" height="22" rx="10" ry="10"></rect>
<text x="262" y="95">OFF</text>
</g>
<path d="M312 91a10 10 0 0 0 10 -10v-10a10 10 0 0 1 10 -10"></path>
</g>
<path d="M 332 61 h 20 m -10 -10 v 20 m 10 -20 v 20"></path>
</g>
</svg>
