<svg xmlns="http://www.w3.org/2000/svg" class="railroad-diagram" width="413" height="122" viewBox="0 0 413 122">
<style>.railroad-diagram { background: transparent; }
.railroad-diagram path { stroke-width: 2; stroke: #374151; fill: none; }
.railroad-diagram text { font: bold 13px monospace; text-anchor: middle; fill: #111827; }
.railroad-diagram text.comment { font: italic 12px monospace; fill: #6b7280; }
.railroad-diagram rect { stroke-width: 2; stroke: #374151; fill: #f3f4f6; }</style>
<g transform="translate(.5 .5)">
<path d="M 20 21 v 20 m 10 -20 v 20 m -10 -10 h 20.5"></path>
<path d="M40 31h10"></path>
<g>
<path d="M50 31h0"></path>
<path d="M94 31h0"></path>
<rect x="50" y="20" width="44" height="22" rx="10" ry="10"></rect>
<text x="72" y="35">SET</text>
</g>
<path d="M94 31h10"></path>
<path d="M104 31h10"></path>
<g>
<path d="M114 31h0"></path>
<path d="M230 31h0"></path>
<rect x="114" y="20" width="116" height="22" rx="10" ry="10"></rect>
<text x="172" y="35">EXPLAIN&#95;MODE</text>
</g>
<path d="M230 31h10"></path>
<g>
<path d="M240 31h0"></path>
<path d="M372 31h0"></path>
<path d="M240 31h20"></path>
<g>
<path d="M260 31h0"></path>
<path d="M352 31h0"></path>
<path d="M260 31h10"></path>
<g>
<path d="M270 31h0"></path>
<path d="M298 31h0"></path>
<rect x="270" y="20" width="28" height="22" rx="10" ry="10"></rect>
<text x="284" y="35">0</text>
</g>
<path d="M298 31h10"></path>
<path d="M308 31h10"></path>
<g>
<path d="M318 31h0"></path>
<path d="M342 31h0"></path>
<text x="330" y="36" class="comment">默认</text>
</g>
<path d="M342 31h10"></path>
</g>
<path d="M352 31h20"></path>
<path d="M240 31a10 10 0 0 1 10 10v10a10 10 0 0 0 10 10"></path>
<g>
<path d="M260 61h32"></path>
<path d="M320 61h32"></path>
<rect x="292" y="50" width="28" height="22" rx="10" ry="10"></rect>
<text x="306" y="65">1</text>
</g>
<path d="M352 61a10 10 0 0 0 10 -10v-10a10 10 0 0 1 10 -10"></path>
<path d="M240 31a10 10 0 0 1 10 10v40a10 10 0 0 0 10 10"></path>
<g>
<path d="M260 91h32"></path>
<path d="M320 91h32"></path>
<rect x="292" y="80" width="28" height="22" rx="10" ry="10"></rect>
<text x="306" y="95">2</text>
</g>
<path d="M352 91a10 10 0 0 0 10 -10v-40a10 10 0 0 1 10 -10"></path>
</g>
<path d="M 372 31 h 20 m -10 -10 v 20 m 10 -20 v 20"></path>
</g>
</svg>
