<svg xmlns="http://www.w3.org/2000/svg" class="railroad-diagram" width="441" height="102" viewBox="0 0 441 102">
<style>.railroad-diagram { background: transparent; }
.railroad-diagram path { stroke-width: 2; stroke: #374151; fill: none; }
.railroad-diagram text { font: bold 13px monospace; text-anchor: middle; fill: #111827; }
.railroad-diagram text.comment { font: italic 12px monospace; fill: #6b7280; }
.railroad-diagram rect { stroke-width: 2; stroke: #374151; fill: #f3f4f6; }
@media (prefers-color-scheme: dark) {
  .railroad-diagram path { stroke: #7c8fa8; }
  .railroad-diagram text { fill: #e2e8f0; }
  .railroad-diagram text.comment { fill: #94a3b8; }
  .railroad-diagram rect { stroke: #5b7fa6; fill: #1e2d45; }
}</style>
<g transform="translate(.5 .5)">
<path d="M 20 31 v 20 m 10 -20 v 20 m -10 -10 h 20.5"></path>
<path d="M40 41h10"></path>
<g>
<path d="M50 41h0"></path>
<path d="M94 41h0"></path>
<rect x="50" y="30" width="44" height="22" rx="10" ry="10"></rect>
<text x="72" y="45">SET</text>
</g>
<path d="M94 41h10"></path>
<g>
<path d="M104 41h0"></path>
<path d="M260 41h0"></path>
<path d="M104 41h10"></path>
<g>
<path d="M114 41h0"></path>
<path d="M158 41h0"></path>
<rect x="114" y="30" width="44" height="22" rx="10" ry="10"></rect>
<text x="136" y="45">HEA</text>
</g>
<path d="M158 41h10"></path>
<g>
<path d="M168 41h0"></path>
<path d="M260 41h0"></path>
<path d="M168 41a10 10 0 0 0 10 -10v0a10 10 0 0 1 10 -10"></path>
<g>
<path d="M188 21h52"></path>
</g>
<path d="M240 21a10 10 0 0 1 10 10v0a10 10 0 0 0 10 10"></path>
<path d="M168 41h20"></path>
<g>
<path d="M188 41h0"></path>
<path d="M240 41h0"></path>
<rect x="188" y="30" width="52" height="22" rx="10" ry="10"></rect>
<text x="214" y="45">DING</text>
</g>
<path d="M240 41h20"></path>
</g>
</g>
<g>
<path d="M260 41h0"></path>
<path d="M400 41h0"></path>
<path d="M260 41h20"></path>
<g>
<path d="M280 41h0"></path>
<path d="M380 41h0"></path>
<path d="M280 41h10"></path>
<g>
<path d="M290 41h0"></path>
<path d="M326 41h0"></path>
<rect x="290" y="30" width="36" height="22" rx="10" ry="10"></rect>
<text x="308" y="45">ON</text>
</g>
<path d="M326 41h10"></path>
<path d="M336 41h10"></path>
<g>
<path d="M346 41h0"></path>
<path d="M370 41h0"></path>
<text x="358" y="46" class="comment">默认</text>
</g>
<path d="M370 41h10"></path>
</g>
<path d="M380 41h20"></path>
<path d="M260 41a10 10 0 0 1 10 10v10a10 10 0 0 0 10 10"></path>
<g>
<path d="M280 71h28"></path>
<path d="M352 71h28"></path>
<rect x="308" y="60" width="44" height="22" rx="10" ry="10"></rect>
<text x="330" y="75">OFF</text>
</g>
<path d="M380 71a10 10 0 0 0 10 -10v-10a10 10 0 0 1 10 -10"></path>
</g>
<path d="M 400 41 h 20 m -10 -10 v 20 m 10 -20 v 20"></path>
</g>
</svg>
