<svg xmlns="http://www.w3.org/2000/svg" class="railroad-diagram" width="389" height="152" viewBox="0 0 389 152">
<style>.railroad-diagram { background: transparent; }
.railroad-diagram path { stroke-width: 2; stroke: #374151; fill: none; }
.railroad-diagram text { font: bold 13px monospace; text-anchor: middle; fill: #111827; }
.railroad-diagram text.comment { font: italic 12px monospace; fill: #6b7280; }
.railroad-diagram rect { stroke-width: 2; stroke: #374151; fill: #f3f4f6; }</style>
<g transform="translate(.5 .5)">
<path d="M 20 21 v 20 m 10 -20 v 20 m -10 -10 h 20.5"></path>
<path d="M40 31h10"></path>
<g>
<path d="M50 31h0"></path>
<path d="M94 31h0"></path>
<rect x="50" y="20" width="44" height="22" rx="10" ry="10"></rect>
<text x="72" y="35">SET</text>
</g>
<path d="M94 31h10"></path>
<path d="M104 31h10"></path>
<g>
<path d="M114 31h0"></path>
<path d="M206 31h0"></path>
<rect x="114" y="20" width="92" height="22" rx="10" ry="10"></rect>
<text x="160" y="35">ISQL&#95;MODE</text>
</g>
<path d="M206 31h10"></path>
<g>
<path d="M216 31h0"></path>
<path d="M348 31h0"></path>
<path d="M216 31h20"></path>
<g>
<path d="M236 31h0"></path>
<path d="M328 31h0"></path>
<path d="M236 31h10"></path>
<g>
<path d="M246 31h0"></path>
<path d="M274 31h0"></path>
<rect x="246" y="20" width="28" height="22" rx="10" ry="10"></rect>
<text x="260" y="35">0</text>
</g>
<path d="M274 31h10"></path>
<path d="M284 31h10"></path>
<g>
<path d="M294 31h0"></path>
<path d="M318 31h0"></path>
<text x="306" y="36" class="comment">默认</text>
</g>
<path d="M318 31h10"></path>
</g>
<path d="M328 31h20"></path>
<path d="M216 31a10 10 0 0 1 10 10v10a10 10 0 0 0 10 10"></path>
<g>
<path d="M236 61h32"></path>
<path d="M296 61h32"></path>
<rect x="268" y="50" width="28" height="22" rx="10" ry="10"></rect>
<text x="282" y="65">1</text>
</g>
<path d="M328 61a10 10 0 0 0 10 -10v-10a10 10 0 0 1 10 -10"></path>
<path d="M216 31a10 10 0 0 1 10 10v40a10 10 0 0 0 10 10"></path>
<g>
<path d="M236 91h32"></path>
<path d="M296 91h32"></path>
<rect x="268" y="80" width="28" height="22" rx="10" ry="10"></rect>
<text x="282" y="95">2</text>
</g>
<path d="M328 91a10 10 0 0 0 10 -10v-40a10 10 0 0 1 10 -10"></path>
<path d="M216 31a10 10 0 0 1 10 10v70a10 10 0 0 0 10 10"></path>
<g>
<path d="M236 121h32"></path>
<path d="M296 121h32"></path>
<rect x="268" y="110" width="28" height="22" rx="10" ry="10"></rect>
<text x="282" y="125">3</text>
</g>
<path d="M328 121a10 10 0 0 0 10 -10v-70a10 10 0 0 1 10 -10"></path>
</g>
<path d="M 348 31 h 20 m -10 -10 v 20 m 10 -20 v 20"></path>
</g>
</svg>
