<svg xmlns="http://www.w3.org/2000/svg" class="railroad-diagram" width="445" height="152" viewBox="0 0 445 152">
<style>.railroad-diagram { background: transparent; }
.railroad-diagram path { stroke-width: 2; stroke: #374151; fill: none; }
.railroad-diagram text { font: bold 13px monospace; text-anchor: middle; fill: #111827; }
.railroad-diagram text.comment { font: italic 12px monospace; fill: #6b7280; }
.railroad-diagram rect { stroke-width: 2; stroke: #374151; fill: #f3f4f6; }
@media (prefers-color-scheme: dark) {
  .railroad-diagram path { stroke: #7c8fa8; }
  .railroad-diagram text { fill: #e2e8f0; }
  .railroad-diagram text.comment { fill: #94a3b8; }
  .railroad-diagram rect { stroke: #5b7fa6; fill: #1e2d45; }
}</style>
<g transform="translate(.5 .5)">
<path d="M 20 111 v 20 m 10 -20 v 20 m -10 -10 h 20.5"></path>
<path d="M40 121h10"></path>
<g>
<path d="M50 121h0"></path>
<path d="M94 121h0"></path>
<rect x="50" y="110" width="44" height="22" rx="10" ry="10"></rect>
<text x="72" y="125">SET</text>
</g>
<path d="M94 121h10"></path>
<path d="M104 121h10"></path>
<g>
<path d="M114 121h0"></path>
<path d="M214 121h0"></path>
<rect x="114" y="110" width="100" height="22" rx="10" ry="10"></rect>
<text x="164" y="125">LOCAL&#95;CODE</text>
</g>
<path d="M214 121h10"></path>
<g>
<path d="M224 121h0"></path>
<path d="M404 121h0"></path>
<path d="M224 121a10 10 0 0 0 10 -10v-10a10 10 0 0 1 10 -10"></path>
<g>
<path d="M244 91h44"></path>
<path d="M340 91h44"></path>
<rect x="288" y="80" width="52" height="22" rx="10" ry="10"></rect>
<text x="314" y="95">UTF8</text>
</g>
<path d="M384 91a10 10 0 0 1 10 10v10a10 10 0 0 0 10 10"></path>
<path d="M224 121a10 10 0 0 0 10 -10v-40a10 10 0 0 1 10 -10"></path>
<g>
<path d="M244 61h32"></path>
<path d="M352 61h32"></path>
<rect x="276" y="50" width="76" height="22" rx="10" ry="10"></rect>
<text x="314" y="65">GB18030</text>
</g>
<path d="M384 61a10 10 0 0 1 10 10v40a10 10 0 0 0 10 10"></path>
<path d="M224 121a10 10 0 0 0 10 -10v-70a10 10 0 0 1 10 -10"></path>
<g>
<path d="M244 31h48"></path>
<path d="M336 31h48"></path>
<rect x="292" y="20" width="44" height="22" rx="10" ry="10"></rect>
<text x="314" y="35">GBK</text>
</g>
<path d="M384 31a10 10 0 0 1 10 10v70a10 10 0 0 0 10 10"></path>
<path d="M224 121h20"></path>
<g>
<path d="M244 121h0"></path>
<path d="M384 121h0"></path>
<path d="M244 121h10"></path>
<g>
<path d="M254 121h0"></path>
<path d="M330 121h0"></path>
<rect x="254" y="110" width="76" height="22" rx="10" ry="10"></rect>
<text x="292" y="125">DEFAULT</text>
</g>
<path d="M330 121h10"></path>
<path d="M340 121h10"></path>
<g>
<path d="M350 121h0"></path>
<path d="M374 121h0"></path>
<text x="362" y="126" class="comment">默认</text>
</g>
<path d="M374 121h10"></path>
</g>
<path d="M384 121h20"></path>
</g>
<path d="M 404 121 h 20 m -10 -10 v 20 m 10 -20 v 20"></path>
</g>
</svg>
