<svg xmlns="http://www.w3.org/2000/svg" class="railroad-diagram" width="429" height="92" viewBox="0 0 429 92">
<style>.railroad-diagram { background: transparent; }
.railroad-diagram path { stroke-width: 2; stroke: #374151; fill: none; }
.railroad-diagram text { font: bold 13px monospace; text-anchor: middle; fill: #111827; }
.railroad-diagram text.comment { font: italic 12px monospace; fill: #6b7280; }
.railroad-diagram rect { stroke-width: 2; stroke: #374151; fill: #f3f4f6; }
@media (prefers-color-scheme: dark) {
  .railroad-diagram path { stroke: #7c8fa8; }
  .railroad-diagram text { fill: #e2e8f0; }
  .railroad-diagram text.comment { fill: #94a3b8; }
  .railroad-diagram rect { stroke: #5b7fa6; fill: #1e2d45; }
}</style>
<g transform="translate(.5 .5)">
<path d="M 20 51 v 20 m 10 -20 v 20 m -10 -10 h 20.5"></path>
<path d="M40 61h10"></path>
<g>
<path d="M50 61h0"></path>
<path d="M94 61h0"></path>
<rect x="50" y="50" width="44" height="22" rx="10" ry="10"></rect>
<text x="72" y="65">SET</text>
</g>
<path d="M94 61h10"></path>
<path d="M104 61h10"></path>
<g>
<path d="M114 61h0"></path>
<path d="M230 61h0"></path>
<rect x="114" y="50" width="116" height="22" rx="10" ry="10"></rect>
<text x="172" y="65">NEST&#95;COMMENT</text>
</g>
<path d="M230 61h10"></path>
<g>
<path d="M240 61h0"></path>
<path d="M388 61h0"></path>
<path d="M240 61a10 10 0 0 0 10 -10v-10a10 10 0 0 1 10 -10"></path>
<g>
<path d="M260 31h36"></path>
<path d="M332 31h36"></path>
<rect x="296" y="20" width="36" height="22" rx="10" ry="10"></rect>
<text x="314" y="35">ON</text>
</g>
<path d="M368 31a10 10 0 0 1 10 10v10a10 10 0 0 0 10 10"></path>
<path d="M240 61h20"></path>
<g>
<path d="M260 61h0"></path>
<path d="M368 61h0"></path>
<path d="M260 61h10"></path>
<g>
<path d="M270 61h0"></path>
<path d="M314 61h0"></path>
<rect x="270" y="50" width="44" height="22" rx="10" ry="10"></rect>
<text x="292" y="65">OFF</text>
</g>
<path d="M314 61h10"></path>
<path d="M324 61h10"></path>
<g>
<path d="M334 61h0"></path>
<path d="M358 61h0"></path>
<text x="346" y="66" class="comment">默认</text>
</g>
<path d="M358 61h10"></path>
</g>
<path d="M368 61h20"></path>
</g>
<path d="M 388 61 h 20 m -10 -10 v 20 m 10 -20 v 20"></path>
</g>
</svg>
