<svg xmlns="http://www.w3.org/2000/svg" class="railroad-diagram" width="421" height="92" viewBox="0 0 421 92">
<style>.railroad-diagram { background: transparent; }
.railroad-diagram path { stroke-width: 2; stroke: #374151; fill: none; }
.railroad-diagram text { font: bold 13px monospace; text-anchor: middle; fill: #111827; }
.railroad-diagram text.comment { font: italic 12px monospace; fill: #6b7280; }
.railroad-diagram rect { stroke-width: 2; stroke: #374151; fill: #f3f4f6; }</style>
<g transform="translate(.5 .5)">
<path d="M 20 51 v 20 m 10 -20 v 20 m -10 -10 h 20.5"></path>
<path d="M40 61h10"></path>
<g>
<path d="M50 61h0"></path>
<path d="M94 61h0"></path>
<rect x="50" y="50" width="44" height="22" rx="10" ry="10"></rect>
<text x="72" y="65">SET</text>
</g>
<path d="M94 61h10"></path>
<path d="M104 61h10"></path>
<g>
<path d="M114 61h0"></path>
<path d="M222 61h0"></path>
<rect x="114" y="50" width="108" height="22" rx="10" ry="10"></rect>
<text x="168" y="65">NULL&#95;ASNULL</text>
</g>
<path d="M222 61h10"></path>
<g>
<path d="M232 61h0"></path>
<path d="M380 61h0"></path>
<path d="M232 61a10 10 0 0 0 10 -10v-10a10 10 0 0 1 10 -10"></path>
<g>
<path d="M252 31h36"></path>
<path d="M324 31h36"></path>
<rect x="288" y="20" width="36" height="22" rx="10" ry="10"></rect>
<text x="306" y="35">ON</text>
</g>
<path d="M360 31a10 10 0 0 1 10 10v10a10 10 0 0 0 10 10"></path>
<path d="M232 61h20"></path>
<g>
<path d="M252 61h0"></path>
<path d="M360 61h0"></path>
<path d="M252 61h10"></path>
<g>
<path d="M262 61h0"></path>
<path d="M306 61h0"></path>
<rect x="262" y="50" width="44" height="22" rx="10" ry="10"></rect>
<text x="284" y="65">OFF</text>
</g>
<path d="M306 61h10"></path>
<path d="M316 61h10"></path>
<g>
<path d="M326 61h0"></path>
<path d="M350 61h0"></path>
<text x="338" y="66" class="comment">默认</text>
</g>
<path d="M350 61h10"></path>
</g>
<path d="M360 61h20"></path>
</g>
<path d="M 380 61 h 20 m -10 -10 v 20 m 10 -20 v 20"></path>
</g>
</svg>
