<svg xmlns="http://www.w3.org/2000/svg" class="railroad-diagram" width="437" height="92" viewBox="0 0 437 92">
<style>.railroad-diagram { background: transparent; }
.railroad-diagram path { stroke-width: 2; stroke: #374151; fill: none; }
.railroad-diagram text { font: bold 13px monospace; text-anchor: middle; fill: #111827; }
.railroad-diagram text.comment { font: italic 12px monospace; fill: #6b7280; }
.railroad-diagram rect { stroke-width: 2; stroke: #374151; fill: #f3f4f6; }
@media (prefers-color-scheme: dark) {
  .railroad-diagram path { stroke: #7c8fa8; }
  .railroad-diagram text { fill: #e2e8f0; }
  .railroad-diagram text.comment { fill: #94a3b8; }
  .railroad-diagram rect { stroke: #5b7fa6; fill: #1e2d45; }
}</style>
<g transform="translate(.5 .5)">
<path d="M 20 21 v 20 m 10 -20 v 20 m -10 -10 h 20.5"></path>
<path d="M40 31h10"></path>
<g>
<path d="M50 31h0"></path>
<path d="M94 31h0"></path>
<rect x="50" y="20" width="44" height="22" rx="10" ry="10"></rect>
<text x="72" y="35">SET</text>
</g>
<path d="M94 31h10"></path>
<path d="M104 31h10"></path>
<g>
<path d="M114 31h0"></path>
<path d="M254 31h0"></path>
<rect x="114" y="20" width="140" height="22" rx="10" ry="10"></rect>
<text x="184" y="35">RETRY&#95;CONN&#95;TIME</text>
</g>
<path d="M254 31h10"></path>
<g>
<path d="M264 31h0"></path>
<path d="M396 31h0"></path>
<path d="M264 31h20"></path>
<g>
<path d="M284 31h0"></path>
<path d="M376 31h0"></path>
<path d="M284 31h10"></path>
<g>
<path d="M294 31h0"></path>
<path d="M322 31h0"></path>
<rect x="294" y="20" width="28" height="22" rx="10" ry="10"></rect>
<text x="308" y="35">0</text>
</g>
<path d="M322 31h10"></path>
<path d="M332 31h10"></path>
<g>
<path d="M342 31h0"></path>
<path d="M366 31h0"></path>
<text x="354" y="36" class="comment">默认</text>
</g>
<path d="M366 31h10"></path>
</g>
<path d="M376 31h20"></path>
<path d="M264 31a10 10 0 0 1 10 10v10a10 10 0 0 0 10 10"></path>
<g>
<path d="M284 61h32"></path>
<path d="M344 61h32"></path>
<rect x="316" y="50" width="28" height="22"></rect>
<text x="330" y="65">n</text>
</g>
<path d="M376 61a10 10 0 0 0 10 -10v-10a10 10 0 0 1 10 -10"></path>
</g>
<path d="M 396 31 h 20 m -10 -10 v 20 m 10 -20 v 20"></path>
</g>
</svg>
