<svg xmlns="http://www.w3.org/2000/svg" class="railroad-diagram" width="397" height="122" viewBox="0 0 397 122">
<style>.railroad-diagram { background: transparent; }
.railroad-diagram path { stroke-width: 2; stroke: #374151; fill: none; }
.railroad-diagram text { font: bold 13px monospace; text-anchor: middle; fill: #111827; }
.railroad-diagram text.comment { font: italic 12px monospace; fill: #6b7280; }
.railroad-diagram rect { stroke-width: 2; stroke: #374151; fill: #f3f4f6; }</style>
<g transform="translate(.5 .5)">
<path d="M 20 21 v 20 m 10 -20 v 20 m -10 -10 h 20.5"></path>
<path d="M40 31h10"></path>
<g>
<path d="M50 31h0"></path>
<path d="M94 31h0"></path>
<rect x="50" y="20" width="44" height="22" rx="10" ry="10"></rect>
<text x="72" y="35">SET</text>
</g>
<path d="M94 31h10"></path>
<path d="M104 31h10"></path>
<g>
<path d="M114 31h0"></path>
<path d="M214 31h0"></path>
<rect x="114" y="20" width="100" height="22" rx="10" ry="10"></rect>
<text x="164" y="35">RETRY&#95;CONN</text>
</g>
<path d="M214 31h10"></path>
<g>
<path d="M224 31h0"></path>
<path d="M356 31h0"></path>
<path d="M224 31h20"></path>
<g>
<path d="M244 31h0"></path>
<path d="M336 31h0"></path>
<path d="M244 31h10"></path>
<g>
<path d="M254 31h0"></path>
<path d="M282 31h0"></path>
<rect x="254" y="20" width="28" height="22" rx="10" ry="10"></rect>
<text x="268" y="35">3</text>
</g>
<path d="M282 31h10"></path>
<path d="M292 31h10"></path>
<g>
<path d="M302 31h0"></path>
<path d="M326 31h0"></path>
<text x="314" y="36" class="comment">默认</text>
</g>
<path d="M326 31h10"></path>
</g>
<path d="M336 31h20"></path>
<path d="M224 31a10 10 0 0 1 10 10v10a10 10 0 0 0 10 10"></path>
<g>
<path d="M244 61h32"></path>
<path d="M304 61h32"></path>
<rect x="276" y="50" width="28" height="22"></rect>
<text x="290" y="65">n</text>
</g>
<path d="M336 61a10 10 0 0 0 10 -10v-10a10 10 0 0 1 10 -10"></path>
<path d="M224 31a10 10 0 0 1 10 10v40a10 10 0 0 0 10 10"></path>
<g>
<path d="M244 91h32"></path>
<path d="M304 91h32"></path>
<rect x="276" y="80" width="28" height="22" rx="10" ry="10"></rect>
<text x="290" y="95">0</text>
</g>
<path d="M336 91a10 10 0 0 0 10 -10v-40a10 10 0 0 1 10 -10"></path>
</g>
<path d="M 356 31 h 20 m -10 -10 v 20 m 10 -20 v 20"></path>
</g>
</svg>
