<svg xmlns="http://www.w3.org/2000/svg" class="railroad-diagram" width="349" height="92" viewBox="0 0 349 92">
<style>.railroad-diagram { background: transparent; }
.railroad-diagram path { stroke-width: 2; stroke: #374151; fill: none; }
.railroad-diagram text { font: bold 13px monospace; text-anchor: middle; fill: #111827; }
.railroad-diagram text.comment { font: italic 12px monospace; fill: #6b7280; }
.railroad-diagram rect { stroke-width: 2; stroke: #374151; fill: #f3f4f6; }</style>
<g transform="translate(.5 .5)">
<path d="M 20 21 v 20 m 10 -20 v 20 m -10 -10 h 20.5"></path>
<path d="M40 31h10"></path>
<g>
<path d="M50 31h0"></path>
<path d="M94 31h0"></path>
<rect x="50" y="20" width="44" height="22" rx="10" ry="10"></rect>
<text x="72" y="35">SET</text>
</g>
<path d="M94 31h10"></path>
<path d="M104 31h10"></path>
<g>
<path d="M114 31h0"></path>
<path d="M166 31h0"></path>
<rect x="114" y="20" width="52" height="22" rx="10" ry="10"></rect>
<text x="140" y="35">ROWS</text>
</g>
<path d="M166 31h10"></path>
<g>
<path d="M176 31h0"></path>
<path d="M308 31h0"></path>
<path d="M176 31h20"></path>
<g>
<path d="M196 31h0"></path>
<path d="M288 31h0"></path>
<path d="M196 31h10"></path>
<g>
<path d="M206 31h0"></path>
<path d="M234 31h0"></path>
<rect x="206" y="20" width="28" height="22" rx="10" ry="10"></rect>
<text x="220" y="35">0</text>
</g>
<path d="M234 31h10"></path>
<path d="M244 31h10"></path>
<g>
<path d="M254 31h0"></path>
<path d="M278 31h0"></path>
<text x="266" y="36" class="comment">默认</text>
</g>
<path d="M278 31h10"></path>
</g>
<path d="M288 31h20"></path>
<path d="M176 31a10 10 0 0 1 10 10v10a10 10 0 0 0 10 10"></path>
<g>
<path d="M196 61h32"></path>
<path d="M256 61h32"></path>
<rect x="228" y="50" width="28" height="22"></rect>
<text x="242" y="65">n</text>
</g>
<path d="M288 61a10 10 0 0 0 10 -10v-10a10 10 0 0 1 10 -10"></path>
</g>
<path d="M 308 31 h 20 m -10 -10 v 20 m 10 -20 v 20"></path>
</g>
</svg>
