<svg xmlns="http://www.w3.org/2000/svg" class="railroad-diagram" width="845" height="152" viewBox="0 0 845 152">
<style>.railroad-diagram { background: transparent; }
.railroad-diagram path { stroke-width: 2; stroke: #374151; fill: none; }
.railroad-diagram text { font: bold 13px monospace; text-anchor: middle; fill: #111827; }
.railroad-diagram text.comment { font: italic 12px monospace; fill: #6b7280; }
.railroad-diagram rect { stroke-width: 2; stroke: #374151; fill: #f3f4f6; }
@media (prefers-color-scheme: dark) {
  .railroad-diagram path { stroke: #7c8fa8; }
  .railroad-diagram text { fill: #e2e8f0; }
  .railroad-diagram text.comment { fill: #94a3b8; }
  .railroad-diagram rect { stroke: #5b7fa6; fill: #1e2d45; }
}</style>
<g transform="translate(.5 .5)">
<path d="M 20 51 v 20 m 10 -20 v 20 m -10 -10 h 20.5"></path>
<path d="M40 61h10"></path>
<g>
<path d="M50 61h0"></path>
<path d="M94 61h0"></path>
<rect x="50" y="50" width="44" height="22" rx="10" ry="10"></rect>
<text x="72" y="65">SET</text>
</g>
<path d="M94 61h10"></path>
<g>
<path d="M104 61h0"></path>
<path d="M300 61h0"></path>
<path d="M104 61h10"></path>
<g>
<path d="M114 61h0"></path>
<path d="M206 61h0"></path>
<rect x="114" y="50" width="92" height="22" rx="10" ry="10"></rect>
<text x="160" y="65">SERVEROUT</text>
</g>
<path d="M206 61h10"></path>
<g>
<path d="M216 61h0"></path>
<path d="M300 61h0"></path>
<path d="M216 61a10 10 0 0 0 10 -10v0a10 10 0 0 1 10 -10"></path>
<g>
<path d="M236 41h44"></path>
</g>
<path d="M280 41a10 10 0 0 1 10 10v0a10 10 0 0 0 10 10"></path>
<path d="M216 61h20"></path>
<g>
<path d="M236 61h0"></path>
<path d="M280 61h0"></path>
<rect x="236" y="50" width="44" height="22" rx="10" ry="10"></rect>
<text x="258" y="65">PUT</text>
</g>
<path d="M280 61h20"></path>
</g>
</g>
<g>
<path d="M300 61h0"></path>
<path d="M448 61h0"></path>
<path d="M300 61a10 10 0 0 0 10 -10v-10a10 10 0 0 1 10 -10"></path>
<g>
<path d="M320 31h36"></path>
<path d="M392 31h36"></path>
<rect x="356" y="20" width="36" height="22" rx="10" ry="10"></rect>
<text x="374" y="35">ON</text>
</g>
<path d="M428 31a10 10 0 0 1 10 10v10a10 10 0 0 0 10 10"></path>
<path d="M300 61h20"></path>
<g>
<path d="M320 61h0"></path>
<path d="M428 61h0"></path>
<path d="M320 61h10"></path>
<g>
<path d="M330 61h0"></path>
<path d="M374 61h0"></path>
<rect x="330" y="50" width="44" height="22" rx="10" ry="10"></rect>
<text x="352" y="65">OFF</text>
</g>
<path d="M374 61h10"></path>
<path d="M384 61h10"></path>
<g>
<path d="M394 61h0"></path>
<path d="M418 61h0"></path>
<text x="406" y="66" class="comment">默认</text>
</g>
<path d="M418 61h10"></path>
</g>
<path d="M428 61h20"></path>
</g>
<g>
<path d="M448 61h0"></path>
<path d="M608 61h0"></path>
<path d="M448 61a10 10 0 0 0 10 -10v0a10 10 0 0 1 10 -10"></path>
<g>
<path d="M468 41h120"></path>
</g>
<path d="M588 41a10 10 0 0 1 10 10v0a10 10 0 0 0 10 10"></path>
<path d="M448 61h20"></path>
<g>
<path d="M468 61h0"></path>
<path d="M588 61h0"></path>
<path d="M468 61h10"></path>
<g>
<path d="M478 61h0"></path>
<path d="M530 61h0"></path>
<rect x="478" y="50" width="52" height="22" rx="10" ry="10"></rect>
<text x="504" y="65">SIZE</text>
</g>
<path d="M530 61h10"></path>
<path d="M540 61h10"></path>
<g>
<path d="M550 61h0"></path>
<path d="M578 61h0"></path>
<rect x="550" y="50" width="28" height="22"></rect>
<text x="564" y="65">n</text>
</g>
<path d="M578 61h10"></path>
</g>
<path d="M588 61h20"></path>
</g>
<g>
<path d="M608 61h0"></path>
<path d="M804 61h0"></path>
<path d="M608 61a10 10 0 0 0 10 -10v0a10 10 0 0 1 10 -10"></path>
<g>
<path d="M628 41h156"></path>
</g>
<path d="M784 41a10 10 0 0 1 10 10v0a10 10 0 0 0 10 10"></path>
<path d="M608 61h20"></path>
<g>
<path d="M628 61h0"></path>
<path d="M784 61h0"></path>
<path d="M628 61h20"></path>
<g>
<path d="M648 61h0"></path>
<path d="M764 61h0"></path>
<rect x="648" y="50" width="116" height="22" rx="10" ry="10"></rect>
<text x="706" y="65">WORD&#95;WRAPPED</text>
</g>
<path d="M764 61h20"></path>
<path d="M628 61a10 10 0 0 1 10 10v10a10 10 0 0 0 10 10"></path>
<g>
<path d="M648 91h12"></path>
<path d="M752 91h12"></path>
<rect x="660" y="80" width="92" height="22" rx="10" ry="10"></rect>
<text x="706" y="95">TRUNCATED</text>
</g>
<path d="M764 91a10 10 0 0 0 10 -10v-10a10 10 0 0 1 10 -10"></path>
<path d="M628 61a10 10 0 0 1 10 10v40a10 10 0 0 0 10 10"></path>
<g>
<path d="M648 121h24"></path>
<path d="M740 121h24"></path>
<rect x="672" y="110" width="68" height="22" rx="10" ry="10"></rect>
<text x="706" y="125">FORMAT</text>
</g>
<path d="M764 121a10 10 0 0 0 10 -10v-40a10 10 0 0 1 10 -10"></path>
</g>
<path d="M784 61h20"></path>
</g>
<path d="M 804 61 h 20 m -10 -10 v 20 m 10 -20 v 20"></path>
</g>
</svg>
