<svg xmlns="http://www.w3.org/2000/svg" class="railroad-diagram" width="389" height="72" viewBox="0 0 389 72">
<style>.railroad-diagram { background: transparent; }
.railroad-diagram path { stroke-width: 2; stroke: #374151; fill: none; }
.railroad-diagram text { font: bold 13px monospace; text-anchor: middle; fill: #111827; }
.railroad-diagram text.comment { font: italic 12px monospace; fill: #6b7280; }
.railroad-diagram rect { stroke-width: 2; stroke: #374151; fill: #f3f4f6; }</style>
<g transform="translate(.5 .5)">
<path d="M 20 31 v 20 m 10 -20 v 20 m -10 -10 h 20.5"></path>
<path d="M40 41h10"></path>
<g>
<path d="M50 41h0"></path>
<path d="M94 41h0"></path>
<rect x="50" y="30" width="44" height="22" rx="10" ry="10"></rect>
<text x="72" y="45">SET</text>
</g>
<path d="M94 41h10"></path>
<g>
<path d="M104 41h0"></path>
<path d="M276 41h0"></path>
<path d="M104 41h10"></path>
<g>
<path d="M114 41h0"></path>
<path d="M166 41h0"></path>
<rect x="114" y="30" width="52" height="22" rx="10" ry="10"></rect>
<text x="140" y="45">SQLP</text>
</g>
<path d="M166 41h10"></path>
<g>
<path d="M176 41h0"></path>
<path d="M276 41h0"></path>
<path d="M176 41a10 10 0 0 0 10 -10v0a10 10 0 0 1 10 -10"></path>
<g>
<path d="M196 21h60"></path>
</g>
<path d="M256 21a10 10 0 0 1 10 10v0a10 10 0 0 0 10 10"></path>
<path d="M176 41h20"></path>
<g>
<path d="M196 41h0"></path>
<path d="M256 41h0"></path>
<rect x="196" y="30" width="60" height="22" rx="10" ry="10"></rect>
<text x="226" y="45">ROMPT</text>
</g>
<path d="M256 41h20"></path>
</g>
</g>
<path d="M276 41h10"></path>
<g>
<path d="M286 41h0"></path>
<path d="M338 41h0"></path>
<rect x="286" y="30" width="52" height="22"></rect>
<text x="312" y="45">text</text>
</g>
<path d="M338 41h10"></path>
<path d="M 348 41 h 20 m -10 -10 v 20 m 10 -20 v 20"></path>
</g>
</svg>
