<svg xmlns="http://www.w3.org/2000/svg" class="railroad-diagram" width="441" height="92" viewBox="0 0 441 92">
<style>.railroad-diagram { background: transparent; }
.railroad-diagram path { stroke-width: 2; stroke: #374151; fill: none; }
.railroad-diagram text { font: bold 13px monospace; text-anchor: middle; fill: #111827; }
.railroad-diagram text.comment { font: italic 12px monospace; fill: #6b7280; }
.railroad-diagram rect { stroke-width: 2; stroke: #374151; fill: #f3f4f6; }</style>
<g transform="translate(.5 .5)">
<path d="M 20 51 v 20 m 10 -20 v 20 m -10 -10 h 20.5"></path>
<path d="M40 61h10"></path>
<g>
<path d="M50 61h0"></path>
<path d="M94 61h0"></path>
<rect x="50" y="50" width="44" height="22" rx="10" ry="10"></rect>
<text x="72" y="65">SET</text>
</g>
<path d="M94 61h10"></path>
<g>
<path d="M104 61h0"></path>
<path d="M252 61h0"></path>
<path d="M104 61h10"></path>
<g>
<path d="M114 61h0"></path>
<path d="M158 61h0"></path>
<rect x="114" y="50" width="44" height="22" rx="10" ry="10"></rect>
<text x="136" y="65">VER</text>
</g>
<path d="M158 61h10"></path>
<g>
<path d="M168 61h0"></path>
<path d="M252 61h0"></path>
<path d="M168 61a10 10 0 0 0 10 -10v0a10 10 0 0 1 10 -10"></path>
<g>
<path d="M188 41h44"></path>
</g>
<path d="M232 41a10 10 0 0 1 10 10v0a10 10 0 0 0 10 10"></path>
<path d="M168 61h20"></path>
<g>
<path d="M188 61h0"></path>
<path d="M232 61h0"></path>
<rect x="188" y="50" width="44" height="22" rx="10" ry="10"></rect>
<text x="210" y="65">IFY</text>
</g>
<path d="M232 61h20"></path>
</g>
</g>
<g>
<path d="M252 61h0"></path>
<path d="M400 61h0"></path>
<path d="M252 61a10 10 0 0 0 10 -10v-10a10 10 0 0 1 10 -10"></path>
<g>
<path d="M272 31h36"></path>
<path d="M344 31h36"></path>
<rect x="308" y="20" width="36" height="22" rx="10" ry="10"></rect>
<text x="326" y="35">ON</text>
</g>
<path d="M380 31a10 10 0 0 1 10 10v10a10 10 0 0 0 10 10"></path>
<path d="M252 61h20"></path>
<g>
<path d="M272 61h0"></path>
<path d="M380 61h0"></path>
<path d="M272 61h10"></path>
<g>
<path d="M282 61h0"></path>
<path d="M326 61h0"></path>
<rect x="282" y="50" width="44" height="22" rx="10" ry="10"></rect>
<text x="304" y="65">OFF</text>
</g>
<path d="M326 61h10"></path>
<path d="M336 61h10"></path>
<g>
<path d="M346 61h0"></path>
<path d="M370 61h0"></path>
<text x="358" y="66" class="comment">默认</text>
</g>
<path d="M370 61h10"></path>
</g>
<path d="M380 61h20"></path>
</g>
<path d="M 400 61 h 20 m -10 -10 v 20 m 10 -20 v 20"></path>
</g>
</svg>
