<svg xmlns="http://www.w3.org/2000/svg" class="railroad-diagram" width="417" height="102" viewBox="0 0 417 102">
<style>.railroad-diagram { background: transparent; }
.railroad-diagram path { stroke-width: 2; stroke: #374151; fill: none; }
.railroad-diagram text { font: bold 13px monospace; text-anchor: middle; fill: #111827; }
.railroad-diagram text.comment { font: italic 12px monospace; fill: #6b7280; }
.railroad-diagram rect { stroke-width: 2; stroke: #374151; fill: #f3f4f6; }
@media (prefers-color-scheme: dark) {
  .railroad-diagram path { stroke: #7c8fa8; }
  .railroad-diagram text { fill: #e2e8f0; }
  .railroad-diagram text.comment { fill: #94a3b8; }
  .railroad-diagram rect { stroke: #5b7fa6; fill: #1e2d45; }
}</style>
<g transform="translate(.5 .5)">
<path d="M 20 31 v 20 m 10 -20 v 20 m -10 -10 h 20.5"></path>
<path d="M40 41h10"></path>
<g>
<path d="M50 41h0"></path>
<path d="M94 41h0"></path>
<rect x="50" y="30" width="44" height="22" rx="10" ry="10"></rect>
<text x="72" y="45">SET</text>
</g>
<path d="M94 41h10"></path>
<g>
<path d="M104 41h0"></path>
<path d="M236 41h0"></path>
<path d="M104 41h10"></path>
<g>
<path d="M114 41h0"></path>
<path d="M158 41h0"></path>
<rect x="114" y="30" width="44" height="22" rx="10" ry="10"></rect>
<text x="136" y="45">WRA</text>
</g>
<path d="M158 41h10"></path>
<g>
<path d="M168 41h0"></path>
<path d="M236 41h0"></path>
<path d="M168 41a10 10 0 0 0 10 -10v0a10 10 0 0 1 10 -10"></path>
<g>
<path d="M188 21h28"></path>
</g>
<path d="M216 21a10 10 0 0 1 10 10v0a10 10 0 0 0 10 10"></path>
<path d="M168 41h20"></path>
<g>
<path d="M188 41h0"></path>
<path d="M216 41h0"></path>
<rect x="188" y="30" width="28" height="22" rx="10" ry="10"></rect>
<text x="202" y="45">P</text>
</g>
<path d="M216 41h20"></path>
</g>
</g>
<g>
<path d="M236 41h0"></path>
<path d="M376 41h0"></path>
<path d="M236 41h20"></path>
<g>
<path d="M256 41h0"></path>
<path d="M356 41h0"></path>
<path d="M256 41h10"></path>
<g>
<path d="M266 41h0"></path>
<path d="M302 41h0"></path>
<rect x="266" y="30" width="36" height="22" rx="10" ry="10"></rect>
<text x="284" y="45">ON</text>
</g>
<path d="M302 41h10"></path>
<path d="M312 41h10"></path>
<g>
<path d="M322 41h0"></path>
<path d="M346 41h0"></path>
<text x="334" y="46" class="comment">默认</text>
</g>
<path d="M346 41h10"></path>
</g>
<path d="M356 41h20"></path>
<path d="M236 41a10 10 0 0 1 10 10v10a10 10 0 0 0 10 10"></path>
<g>
<path d="M256 71h28"></path>
<path d="M328 71h28"></path>
<rect x="284" y="60" width="44" height="22" rx="10" ry="10"></rect>
<text x="306" y="75">OFF</text>
</g>
<path d="M356 71a10 10 0 0 0 10 -10v-10a10 10 0 0 1 10 -10"></path>
</g>
<path d="M 376 41 h 20 m -10 -10 v 20 m 10 -20 v 20"></path>
</g>
</svg>
