<svg xmlns="http://www.w3.org/2000/svg" class="railroad-diagram" width="225" height="62" viewBox="0 0 225 62">
<style>.railroad-diagram { background: transparent; }
.railroad-diagram path { stroke-width: 2; stroke: #374151; fill: none; }
.railroad-diagram text { font: bold 13px monospace; text-anchor: middle; fill: #111827; }
.railroad-diagram text.comment { font: italic 12px monospace; fill: #6b7280; }
.railroad-diagram rect { stroke-width: 2; stroke: #374151; fill: #f3f4f6; }</style>
<g transform="translate(.5 .5)">
<path d="M 20 21 v 20 m 10 -20 v 20 m -10 -10 h 20.5"></path>
<path d="M40 31h10"></path>
<g>
<path d="M50 31h0"></path>
<path d="M102 31h0"></path>
<rect x="50" y="20" width="52" height="22" rx="10" ry="10"></rect>
<text x="76" y="35">INFO</text>
</g>
<path d="M102 31h10"></path>
<path d="M112 31h10"></path>
<g>
<path d="M122 31h0"></path>
<path d="M174 31h0"></path>
<rect x="122" y="20" width="52" height="22"></rect>
<text x="148" y="35">信息类型</text>
</g>
<path d="M174 31h10"></path>
<path d="M 184 31 h 20 m -10 -10 v 20 m 10 -20 v 20"></path>
</g>
</svg>
